#N canvas 556 75 923 827 10;
#X obj 124 -147 vsl 10 65 0 1 0 0 empty empty clip 0 -9 0 10 -262144
-1 -1 0 1;
#X floatatom 124 -74 5 0 0 0 - - -;
#X obj 124 -53 s \$0-clip;
#X obj 194 -147 vsl 10 65 0 0.25 0 0 empty empty shape 0 -9 0 10 -262144
-1 -1 0 1;
#X floatatom 194 -74 5 0 0 0 - - -;
#X obj 194 -53 s \$0-shape;
#X obj 407 -95 f \$1;
#X obj 487 -96 f \$2;
#X obj 561 -95 f \$3;
#X obj 647 -95 f \$4;
#X obj 407 -161 inlet attack;
#X obj 487 -160 inlet decay;
#X obj 561 -159 inlet sustain;
#X obj 647 -159 inlet release;
#X obj 561 -73 clip 0 1;
#X obj 412 -136 loadbang;
#X obj 407 -48 s \$0-attack;
#X obj 487 -48 s \$0-decay;
#X obj 561 -48 s \$0-sustain;
#X obj 647 -48 s \$0-release;
#X obj 131 395 outlet~;
#X obj 223 396 outlet~;
#X obj 131 373 catch~ \$0-outL;
#X obj 223 374 catch~ \$0-outR;
#X obj 274 -147 vsl 10 65 0 1 0 0 empty empty mod 0 -9 0 10 -262144
-1 -1 0 1;
#X floatatom 274 -74 5 0 0 0 - - -;
#X obj 274 -53 s \$0-mod;
#X obj 120 -13 inlet note-vel;
#X obj 120 35 pack f f f;
#X obj 183 137 3cos_voice~ \$0;
#X obj 183 116 3cos_voice~ \$0;
#X obj 183 95 3cos_voice~ \$0;
#X obj 23 -118 loadbang;
#X msg 22 -79 0.5;
#X msg 60 -83 0.125;
#X obj 120 57 route 1 2 3;
#X obj 120 13 poly 3 1;
#X connect 0 0 1 0;
#X connect 1 0 2 0;
#X connect 3 0 4 0;
#X connect 4 0 5 0;
#X connect 6 0 16 0;
#X connect 7 0 17 0;
#X connect 8 0 14 0;
#X connect 9 0 19 0;
#X connect 10 0 6 0;
#X connect 11 0 7 0;
#X connect 12 0 8 0;
#X connect 13 0 9 0;
#X connect 14 0 18 0;
#X connect 15 0 6 0;
#X connect 15 0 7 0;
#X connect 15 0 8 0;
#X connect 15 0 9 0;
#X connect 22 0 20 0;
#X connect 23 0 21 0;
#X connect 24 0 25 0;
#X connect 25 0 26 0;
#X connect 27 0 36 0;
#X connect 28 0 35 0;
#X connect 32 0 33 0;
#X connect 32 0 34 0;
#X connect 33 0 2 0;
#X connect 34 0 5 0;
#X connect 35 0 29 0;
#X connect 35 1 30 0;
#X connect 35 2 31 0;
#X connect 36 0 28 0;
#X connect 36 1 28 1;
#X connect 36 2 28 2;
