#N canvas 632 114 923 827 10;
#X obj 107 131 vsl 10 65 0 1 0 0 empty empty clip 0 -9 0 10 -262144
-1 -1 6400 1;
#X floatatom 107 204 5 0 0 0 - - -;
#X obj 107 285 s \$0-clip;
#X obj 147 131 vsl 10 65 0 0.25 0 0 empty empty shape 0 -9 0 10 -262144
-1 -1 6400 1;
#X floatatom 147 204 5 0 0 0 - - -;
#X obj 177 285 s \$0-shape;
#X obj 435 360 f \$1;
#X obj 515 359 f \$2;
#X obj 589 360 f \$3;
#X obj 675 360 f \$4;
#X obj 435 294 inlet attack;
#X obj 515 295 inlet decay;
#X obj 589 296 inlet sustain;
#X obj 675 296 inlet release;
#X obj 589 382 clip 0 1;
#X obj 440 319 loadbang;
#X obj 435 407 s \$0-attack;
#X obj 515 407 s \$0-decay;
#X obj 589 407 s \$0-sustain;
#X obj 675 407 s \$0-release;
#X obj 159 850 outlet~;
#X obj 187 131 vsl 10 65 0 1 0 0 empty empty mod 0 -9 0 10 -262144
-1 -1 0 1;
#X floatatom 187 204 5 0 0 0 - - -;
#X obj 257 285 s \$0-mod;
#X obj 148 442 inlet note-vel;
#X obj 148 512 route 1 2 3 4 5 6 7 8 9 10;
#X obj 148 490 pack f f f;
#X obj 148 468 poly 10;
#X obj 306 542 3cos_voice~ \$0;
#X obj 799 239 inlet list;
#X obj 799 261 unpack f f f;
#X obj 56 74 loadbang;
#X msg 56 96 1;
#X obj 219 125 tgl 15 0 empty empty Stereo 17 7 0 10 -262144 -1 -1
0 1;
#X obj 363 231 s \$0-stereo;
#X obj 306 730 3cos_voice~ \$0;
#X obj 306 709 3cos_voice~ \$0;
#X obj 306 688 3cos_voice~ \$0;
#X obj 306 667 3cos_voice~ \$0;
#X obj 306 646 3cos_voice~ \$0;
#X obj 306 625 3cos_voice~ \$0;
#X obj 306 604 3cos_voice~ \$0;
#X obj 306 583 3cos_voice~ \$0;
#X obj 306 563 3cos_voice~ \$0;
#X obj 159 828 catch~ \$0-out;
#X connect 0 0 1 0;
#X connect 1 0 2 0;
#X connect 3 0 4 0;
#X connect 4 0 5 0;
#X connect 6 0 16 0;
#X connect 7 0 17 0;
#X connect 8 0 14 0;
#X connect 9 0 19 0;
#X connect 10 0 6 0;
#X connect 11 0 7 0;
#X connect 12 0 8 0;
#X connect 13 0 9 0;
#X connect 14 0 18 0;
#X connect 15 0 6 0;
#X connect 15 0 7 0;
#X connect 15 0 8 0;
#X connect 15 0 9 0;
#X connect 21 0 22 0;
#X connect 22 0 23 0;
#X connect 24 0 27 0;
#X connect 25 0 35 0;
#X connect 25 1 36 0;
#X connect 25 2 37 0;
#X connect 25 3 38 0;
#X connect 25 4 39 0;
#X connect 25 5 40 0;
#X connect 25 6 41 0;
#X connect 25 7 42 0;
#X connect 25 8 43 0;
#X connect 25 9 28 0;
#X connect 26 0 25 0;
#X connect 27 0 26 0;
#X connect 27 1 26 1;
#X connect 27 2 26 2;
#X connect 29 0 30 0;
#X connect 30 0 0 0;
#X connect 30 1 3 0;
#X connect 30 2 21 0;
#X connect 31 0 32 0;
#X connect 32 0 0 0;
#X connect 33 0 34 0;
#X connect 44 0 20 0;
#X coords 0 -1 1 1 175 125 1 100 100;
