#N canvas 0 0 1164 947 10;
#X obj 409 247 osc~;
#X obj 358 247 osc~;
#X obj 300 247 osc~;
#X obj 357 466 clip~ -1 1;
#X obj 341 551 cos~;
#X obj 342 526 +~;
#X obj 300 395 *~ 0.3;
#X obj 357 395 *~ 0.3;
#X obj 407 395 *~ 0.3;
#X obj 358 439 +~;
#X obj 389 439 * -1;
#X obj 342 500 +~;
#X obj 301 466 *~ 0.25;
#X obj 341 604 *~;
#X obj 489 267 vline~;
#X obj 488 292 *~;
#X obj 488 314 *~;
#X obj 340 577 hip~ 10;
#X obj 300 -108 inlet;
#X obj 300 113 mtof;
#X obj 357 369 *~;
#X obj 408 371 *~;
#X obj 458 315 *~;
#X obj 430 315 *~;
#X obj 430 289 sig~;
#X obj 358 219 * 2;
#X obj 409 218 * 3;
#X obj 465 413 r \$1-clip;
#X obj 641 122 sel 0;
#X obj 512 99 r \$1-attack;
#X obj 535 120 r \$1-decay;
#X obj 558 141 r \$1-sustain;
#X obj 686 126 r \$1-release;
#X obj 489 187 pack f f f f;
#X obj 489 69 stripnote;
#X msg 489 217 0 \, 1 \$2 \, \$4 \$3 \$2;
#X obj 641 144 f;
#X msg 641 185 0 \$1;
#X obj 300 -86 unpack f f;
#X obj 300 137 t f f f;
#X obj 540 -1 t f f;
#X obj 589 27 s \$0-vel;
#X obj 357 640 r \$0-vel;
#X obj 396 716 * 0.00787402;
#X text 474 715 1 / 127;
#X obj 357 738 f;
#X obj 357 694 > 0;
#X obj 357 716 sel 1;
#X obj 342 813 *~;
#X obj 357 662 t f f;
#X obj 469 483 r \$1-shape;
#X obj 430 183 r \$1-mod;
#X obj 237 -33 s \$0-note;
#X obj 342 835 *~ 0.316;
#X obj 343 861 throw~ \$1-out;
#X connect 0 0 21 0;
#X connect 1 0 20 0;
#X connect 2 0 6 0;
#X connect 3 0 11 1;
#X connect 4 0 17 0;
#X connect 5 0 4 0;
#X connect 6 0 9 0;
#X connect 6 0 12 0;
#X connect 7 0 9 0;
#X connect 8 0 9 0;
#X connect 9 0 3 0;
#X connect 10 0 3 1;
#X connect 11 0 5 0;
#X connect 12 0 11 0;
#X connect 13 0 48 0;
#X connect 14 0 15 0;
#X connect 14 0 15 1;
#X connect 14 0 23 1;
#X connect 15 0 16 0;
#X connect 15 0 16 1;
#X connect 15 0 22 1;
#X connect 16 0 13 1;
#X connect 17 0 13 0;
#X connect 18 0 38 0;
#X connect 19 0 39 0;
#X connect 20 0 7 0;
#X connect 21 0 8 0;
#X connect 22 0 21 1;
#X connect 23 0 20 1;
#X connect 24 0 23 0;
#X connect 24 0 22 0;
#X connect 25 0 1 0;
#X connect 26 0 0 0;
#X connect 27 0 3 2;
#X connect 27 0 10 0;
#X connect 28 0 36 0;
#X connect 29 0 33 1;
#X connect 30 0 33 2;
#X connect 31 0 33 3;
#X connect 32 0 36 1;
#X connect 33 0 35 0;
#X connect 34 0 33 0;
#X connect 35 0 14 0;
#X connect 36 0 37 0;
#X connect 37 0 14 0;
#X connect 38 0 19 0;
#X connect 38 0 34 0;
#X connect 38 0 52 0;
#X connect 38 1 40 0;
#X connect 39 0 2 0;
#X connect 39 1 25 0;
#X connect 39 2 26 0;
#X connect 40 0 34 1;
#X connect 40 0 28 0;
#X connect 40 1 41 0;
#X connect 42 0 49 0;
#X connect 43 0 45 1;
#X connect 45 0 48 1;
#X connect 46 0 47 0;
#X connect 47 0 45 0;
#X connect 48 0 53 0;
#X connect 49 0 46 0;
#X connect 49 1 43 0;
#X connect 50 0 5 1;
#X connect 51 0 24 0;
#X connect 53 0 54 0;
