#N canvas 0 72 559 595 10;
#X obj 163 91 inlet;
#X msg 163 153 60000;
#X obj 163 113 t b f;
#X obj 148 281 f;
#X obj 124 256 * 2;
#X obj 109 281 f;
#X obj 188 281 f;
#X obj 203 257 * 0.5;
#X obj 238 281 f;
#X obj 253 257 * 0.25;
#X obj 288 281 f;
#X obj 303 257 * 0.125;
#X obj 113 366 f;
#X obj 162 366 f;
#X obj 212 366 f;
#X obj 272 366 f;
#X obj 128 341 * 1.5;
#X obj 177 342 * 0.75;
#X obj 227 342 * 0.375;
#X obj 287 342 * 0.1875;
#X obj 188 465 f;
#X obj -61 258 sel 0 1 2 3 4 5 6 7 8;
#X obj -61 229 inlet;
#X obj 188 487 outlet;
#X obj 163 183 / 160;
#X connect 0 0 2 0;
#X connect 1 0 24 0;
#X connect 2 0 1 0;
#X connect 2 1 24 1;
#X connect 3 0 20 0;
#X connect 4 0 5 1;
#X connect 5 0 20 0;
#X connect 6 0 20 0;
#X connect 7 0 6 1;
#X connect 8 0 20 0;
#X connect 9 0 8 1;
#X connect 10 0 20 0;
#X connect 11 0 10 1;
#X connect 12 0 20 0;
#X connect 13 0 20 0;
#X connect 14 0 20 0;
#X connect 15 0 20 0;
#X connect 16 0 12 1;
#X connect 17 0 13 1;
#X connect 18 0 14 1;
#X connect 19 0 15 1;
#X connect 20 0 23 0;
#X connect 21 0 5 0;
#X connect 21 1 3 0;
#X connect 21 2 6 0;
#X connect 21 3 8 0;
#X connect 21 4 10 0;
#X connect 21 5 12 0;
#X connect 21 6 13 0;
#X connect 21 7 14 0;
#X connect 21 8 15 0;
#X connect 22 0 21 0;
#X connect 24 0 3 1;
#X connect 24 0 4 0;
#X connect 24 0 7 0;
#X connect 24 0 16 0;
#X connect 24 0 17 0;
#X connect 24 0 18 0;
#X connect 24 0 19 0;
#X connect 24 0 9 0;
#X connect 24 0 11 0;
