#N canvas 719 53 815 908 10;
#X obj 268 431 *~;
#X obj 269 393 *~;
#X obj 269 357 *~;
#X obj 270 312 cos~;
#X obj 372 311 cos~;
#X obj 447 310 cos~;
#X obj 517 310 cos~;
#X obj 517 280 phasor~;
#X obj 448 280 phasor~;
#X obj 372 281 phasor~;
#X obj 271 281 phasor~;
#X obj 271 147 mtof;
#X obj 283 699 vline~;
#X obj 435 564 sel 0;
#X obj 271 112 unpack f f;
#X obj 267 721 *~;
#X obj 306 541 r \$1-attack;
#X obj 329 562 r \$1-decay;
#X obj 352 583 r \$1-sustain;
#X obj 480 568 r \$1-release;
#X obj 271 6 inlet note-vel;
#X obj 283 629 pack f f f f;
#X obj 283 511 stripnote;
#X msg 283 659 0 \, 1 \$2 \, \$4 \$3 \$2;
#X obj 435 586 f;
#X msg 435 627 0 \$1;
#X obj 271 32 t l b b b;
#X obj 334 441 f;
#X obj 271 224 unpack 1 2 3 4;
#X msg 271 192 \$1 4 20 2;
#X obj 268 869 fcpan;
#X obj 267 954 throw~ \$1-out-L;
#X obj 296 933 throw~ \$1-out-R;
#X obj 295 823 * 0.01;
#X obj 295 845 + 30;
#X obj 295 801 random 40;
#X connect 0 0 15 0;
#X connect 1 0 0 0;
#X connect 2 0 1 0;
#X connect 3 0 2 0;
#X connect 4 0 2 1;
#X connect 5 0 1 1;
#X connect 6 0 0 1;
#X connect 7 0 6 0;
#X connect 8 0 5 0;
#X connect 9 0 4 0;
#X connect 10 0 3 0;
#X connect 11 0 29 0;
#X connect 12 0 15 1;
#X connect 13 0 24 0;
#X connect 14 0 22 0;
#X connect 14 0 11 0;
#X connect 14 1 27 0;
#X connect 15 0 30 0;
#X connect 16 0 21 1;
#X connect 17 0 21 2;
#X connect 18 0 21 3;
#X connect 19 0 24 1;
#X connect 20 0 26 0;
#X connect 21 0 23 0;
#X connect 22 0 21 0;
#X connect 23 0 12 0;
#X connect 24 0 25 0;
#X connect 25 0 12 0;
#X connect 26 0 14 0;
#X connect 26 3 35 0;
#X connect 27 0 22 1;
#X connect 27 0 13 0;
#X connect 28 0 10 0;
#X connect 28 1 9 0;
#X connect 28 2 8 0;
#X connect 28 3 7 0;
#X connect 29 0 28 0;
#X connect 30 0 31 0;
#X connect 30 1 32 0;
#X connect 33 0 34 0;
#X connect 34 0 30 1;
#X connect 35 0 33 0;
