#N canvas 3 2 1218 982 10;
#X obj 705 289 f \$1;
#X obj 785 288 f \$2;
#X obj 859 289 f \$3;
#X obj 945 289 f \$4;
#X obj 705 223 inlet attack;
#X obj 785 224 inlet decay;
#X obj 859 225 inlet sustain;
#X obj 945 225 inlet release;
#X obj 859 311 clip 0 1;
#X obj 710 248 loadbang;
#X obj 705 336 s \$0-attack;
#X obj 785 336 s \$0-decay;
#X obj 859 336 s \$0-sustain;
#X obj 945 336 s \$0-release;
#X obj 1063 224 inlet barDur;
#X obj 1063 336 s \$0-barD;
#X obj 340 307 inlet note-vel;
#X obj 340 355 pack f f f;
#X obj 320 595 hip~ 20;
#X obj 320 617 lop~ 1000;
#X obj 320 639 lop~ 1000;
#X obj 340 377 route 1 2 3;
#X obj 340 333 poly 3 1;
#X obj 320 573 catch~ \$0-out-L;
#X obj 529 594 hip~ 20;
#X obj 529 616 lop~ 1000;
#X obj 529 638 lop~ 1000;
#X obj 529 569 catch~ \$0-out-R;
#X obj 319 685 outlet~ L;
#X obj 528 685 outlet~ R;
#X obj 340 471 cricketsynth_voice~ \$0;
#X obj 382 429 cricketsynth_voice~ \$0;
#X obj 361 449 cricketsynth_voice~ \$0;
#X connect 0 0 10 0;
#X connect 1 0 11 0;
#X connect 2 0 8 0;
#X connect 3 0 13 0;
#X connect 4 0 0 0;
#X connect 5 0 1 0;
#X connect 6 0 2 0;
#X connect 7 0 3 0;
#X connect 8 0 12 0;
#X connect 9 0 0 0;
#X connect 9 0 1 0;
#X connect 9 0 2 0;
#X connect 9 0 3 0;
#X connect 14 0 15 0;
#X connect 16 0 22 0;
#X connect 17 0 21 0;
#X connect 18 0 19 0;
#X connect 19 0 20 0;
#X connect 20 0 28 0;
#X connect 21 0 30 0;
#X connect 21 1 32 0;
#X connect 21 2 31 0;
#X connect 22 0 17 0;
#X connect 22 1 17 1;
#X connect 22 2 17 2;
#X connect 23 0 18 0;
#X connect 24 0 25 0;
#X connect 25 0 26 0;
#X connect 26 0 29 0;
#X connect 27 0 24 0;
