#N canvas 38 34 1113 898 10;
#X obj 170 84 inlet~;
#X obj 220 84 inlet~;
#X obj 304 104 - 1;
#X obj 304 126 * -1;
#X obj 287 33 inlet;
#X obj 242 188 *~;
#X obj 272 188 *~;
#X obj 103 183 *~;
#X obj 133 183 *~;
#X obj 243 285 outlet~ wet_L;
#X obj 273 264 outlet~ wet_R;
#X obj 134 219 outlet~ dry_R;
#X obj 104 240 outlet~ dry_L;
#X obj 287 75 sqrt;
#X connect 0 0 5 0;
#X connect 0 0 7 0;
#X connect 1 0 6 0;
#X connect 1 0 8 0;
#X connect 2 0 3 0;
#X connect 3 0 7 1;
#X connect 3 0 8 1;
#X connect 4 0 13 0;
#X connect 5 0 9 0;
#X connect 6 0 10 0;
#X connect 7 0 12 0;
#X connect 8 0 11 0;
#X connect 13 0 2 0;
#X connect 13 0 5 1;
#X connect 13 0 6 1;
