#N canvas 0 0 856 898 10;
#X obj 100 348 inlet~ L;
#X obj 101 574 dry-wet;
#X obj 100 416 *~;
#X msg 156 349 \$1 20;
#X obj 156 371 line;
#X obj 120 138 vsl 15 128 0 1 0 0 empty empty Vol 0 -9 0 10 -262144
-1 -1 12700 1;
#X obj 145 152 hsl 35 12 0 1 0 0 empty empty Pan -2 -8 0 10 -262144
-1 -1 1700 1;
#X floatatom 142 169 5 0 0 0 - - -;
#X floatatom 120 274 5 0 0 0 - - -;
#X obj 100 747 outlet~ dry-L;
#X obj 113 727 outlet~ dry-R;
#X obj 126 687 outlet~ wet-L;
#X obj 139 667 outlet~ wet-R;
#X obj 326 371 inlet vol;
#X obj 446 371 inlet rvb;
#X obj 386 370 inlet pan;
#X obj 145 212 hsl 35 12 0 1 0 0 empty empty Rvb -2 -8 0 10 -262144
-1 -1 0 1;
#X floatatom 142 229 5 0 0 0 - - -;
#X obj 100 460 fcpan;
#X connect 0 0 2 0;
#X connect 1 0 9 0;
#X connect 1 1 10 0;
#X connect 1 2 11 0;
#X connect 1 3 12 0;
#X connect 2 0 18 0;
#X connect 3 0 4 0;
#X connect 4 0 2 1;
#X connect 5 0 8 0;
#X connect 6 0 7 0;
#X connect 7 0 18 1;
#X connect 8 0 3 0;
#X connect 13 0 5 0;
#X connect 14 0 16 0;
#X connect 15 0 6 0;
#X connect 16 0 17 0;
#X connect 17 0 1 2;
#X connect 18 0 1 0;
#X connect 18 1 1 1;
#X coords 0 -1 1 1 100 200 2 100 100;
