#N canvas 229 351 450 387 10;
#X obj 82 53 inlet~;
#X obj 187 53 sig~ \$1;
#X obj 187 75 *~ 0.25;
#X obj 187 97 -~ 0.25;
#X obj 187 139 cos~;
#X obj 97 139 -~ 0.25;
#X obj 97 161 cos~;
#X obj 82 205 *~;
#X obj 172 205 *~;
#X obj 82 227 outlet~ l;
#X obj 172 227 outlet~ r;
#X obj 187 28 inlet;
#X connect 0 0 7 0;
#X connect 0 0 8 0;
#X connect 1 0 2 0;
#X connect 2 0 3 0;
#X connect 3 0 4 0;
#X connect 3 0 5 0;
#X connect 4 0 8 1;
#X connect 5 0 6 0;
#X connect 6 0 7 1;
#X connect 7 0 9 0;
#X connect 8 0 10 0;
#X connect 11 0 1 0;
