#N canvas 944 417 735 404 10;
#X obj 168 133 delwrite~ \$0-a 75;
#X obj 424 98 sig~;
#X obj 424 121 vd~ \$0-a 0;
#X obj 424 68 inlet del;
#X obj 425 150 *~;
#X obj 168 110 inlet~;
#X obj 495 122 inlet feed;
#X obj 169 287 outlet~;
#X connect 1 0 2 0;
#X connect 2 0 4 0;
#X connect 2 0 7 0;
#X connect 3 0 1 0;
#X connect 4 0 0 0;
#X connect 5 0 0 0;
#X connect 5 0 7 0;
#X connect 6 0 4 1;
