#N canvas 364 37 760 875 10;
#X obj 345 204 list-drip;
#X obj 426 327 list-dripslow;
#X obj 345 264 t a b;
#X obj 439 554 t l;
#X obj 322 597 list;
#X obj 322 622 outlet;
#X obj 345 176 list;
#X obj 368 145 inlet;
#X obj 535 282 inlet;
#X obj 345 64 inlet;
#X obj 345 554 list prepend;
#X text 23 67 inlets:;
#X text 37 85 1) float 0-1: distance between lists;
#X text 39 106 2) list 1;
#X text 39 125 2) list 2;
#X text 20 25 list-inter: elementwise linear interpolation between
two (float) lists.;
#X obj 345 93 t b f b;
#X obj 512 303 list;
#X obj 512 259 r \$0-start;
#X obj 389 117 s \$0-start;
#X obj 424 531 r \$0-start;
#X obj 345 226 route float;
#X text 14 197 Non-float elements in first list will be kept.;
#X obj 411 422 *;
#X obj 411 381 f;
#X obj 411 401 -;
#X obj 411 359 t b f;
#X obj 411 468 f;
#X obj 411 490 +;
#X obj 411 444 t b f;
#X connect 0 0 21 0;
#X connect 0 1 4 0;
#X connect 1 0 24 1;
#X connect 2 0 26 0;
#X connect 2 1 1 0;
#X connect 3 0 10 1;
#X connect 4 0 5 0;
#X connect 6 0 0 0;
#X connect 7 0 6 1;
#X connect 8 0 17 1;
#X connect 9 0 16 0;
#X connect 10 0 3 0;
#X connect 10 0 4 1;
#X connect 16 0 6 0;
#X connect 16 1 23 1;
#X connect 16 2 19 0;
#X connect 17 0 1 1;
#X connect 18 0 17 0;
#X connect 20 0 10 1;
#X connect 21 0 2 0;
#X connect 21 1 10 0;
#X connect 23 0 29 0;
#X connect 24 0 25 0;
#X connect 25 0 23 0;
#X connect 26 0 24 0;
#X connect 26 1 25 1;
#X connect 26 1 27 1;
#X connect 27 0 28 0;
#X connect 28 0 10 0;
#X connect 29 0 27 0;
#X connect 29 1 28 1;
