#N canvas 0 0 1916 998 10;
#X floatatom 931 216 5 0 0 0 - - -;
#X obj 931 189 f 0;
#X obj 961 167 + 1;
#X obj 961 189 % 4;
#X obj 812 252 sel 0;
#X obj 812 321 f 0;
#X obj 842 299 + 1;
#X obj 842 321 % 4;
#X floatatom 812 345 5 0 0 0 - - -;
#X obj 711 379 sel 0;
#X obj 711 427 f 0;
#X obj 741 427 + 1;
#X floatatom 711 451 5 0 0 0 - - -;
#X obj 1158 216 /;
#X floatatom 1146 99 5 0 0 0 - - -;
#X floatatom 1158 309 5 0 0 0 - - -;
#X msg 1133 145 60000;
#X obj 1133 192 / 4;
#X obj 1146 118 t b f;
#X msg 1472 179 0;
#X obj 1158 346 * 4;
#X obj 1173 394 t b f;
#X obj 931 122 metro 125;
#X text 733 165 calcule la subdivision --->;
#X text 656 294 calcule la noire --->;
#X text 793 437 calcule la mesure --->;
#X obj 1472 202 s \$0-reset;
#X obj 946 146 r \$0-reset;
#X obj 827 277 r \$0-reset;
#X obj 726 404 r \$0-reset;
#X obj 1173 372 r \$0-n_num;
#X obj 1198 112 r \$0-n_sub;
#X obj 993 189 r \$0-n_sub;
#X obj 875 321 r \$0-n_num;
#X obj 1198 159 t b f;
#X text 1197 308 vitesse du metro;
#X text 1184 346 * par le nombre de subdivisions;
#X text 1187 422 * par le nombre de noires;
#X text 1232 446 = la durée totale de la mesure en ms;
#X obj 1158 423 * 4;
#X obj 1218 65 loadbang;
#X msg 1218 82 120;
#X obj 931 92 t f f;
#X obj 1028 92 sel 1;
#X text 534 8 Metronome avec contrôle sur la vitesse en BPM \, le
nombre de noires dans la mesure et le nombre de subdivisions dans une
noire. Offre en sortie le compte des mesures \, des noires et des subdivisions
ainsi que la durée totale de la mesure en ms.;
#X text 1027 26 vitesse en BPM. Calcule la vitesse du méronome en
tenant compte du nombre de subdivisions de la noire.;
#X text 1439 79 inlet "metric" attend une liste de 2 valeurs \, soit
le nombre de noires dans la mesure et le nombre de subdivisions de
la noire.;
#X obj 931 70 r \$0-start;
#X obj 1472 130 r \$0-resetBang;
#X obj 1146 65 r \$0-bpm;
#X obj 95 356 inlet start;
#X obj 400 354 inlet reset;
#X obj 400 378 s \$0-inReset;
#X obj 175 357 inlet bpm;
#X obj 175 379 s \$0-inBPM;
#X obj 242 356 inlet n_num;
#X obj 242 378 s \$0-inN_num;
#X obj 321 356 inlet n_sub;
#X obj 321 378 s \$0-inN_sub;
#X obj 113 -42 loadbang;
#X msg 145 -17 120;
#X obj 145 5 s \$0-inBPM;
#X obj 177 33 s \$0-inN_num;
#X obj 257 32 s \$0-inN_sub;
#X obj 711 473 s \$0-bar;
#X obj 1158 445 s \$0-barDur;
#X obj 113 110 tgl 25 0 \$0-start \$0-inStart Start 28 12 0 10 -99865
-4034 -1 0 1;
#X floatatom 262 112 5 0 0 0 BPM: #0-inBPM #0-bpm;
#X obj 113 138 bng 15 250 50 0 \$0-resetBang \$0-inReset Reset 17 7
0 10 -99865 -258113 -1;
#X floatatom 262 133 5 0 0 0 Metric: #0-inN_num #0-n_num;
#X floatatom 262 150 5 0 0 0 - #0-inN_sub #0-n_sub;
#X floatatom 388 112 5 0 0 0 - #0-beat -;
#X floatatom 354 112 5 0 0 0 Bar|Beat #0-bar dum;
#X floatatom 478 112 5 0 0 0 Bar: #0-barDur #1-barDur;
#N canvas 0 0 450 300 (subpatch) 0;
#X coords 0 1 100 -1 100 75 1 0 0;
#X restore 101 101 graph;
#N canvas 0 0 450 300 (subpatch) 0;
#X coords 0 1 100 -1 398 75 1 0 0;
#X restore 201 101 graph;
#X obj 4 432 outlet bpm;
#X obj 4 409 r \$0-bpm;
#X obj 75 433 outlet bar;
#X obj 75 412 r \$0-bar;
#X obj 144 412 r \$0-beat;
#X obj 144 433 outlet beat;
#X obj 867 144 s \$0-metro;
#X obj -76 409 r \$0-metro;
#X obj -76 431 outlet metro;
#X obj 812 366 s \$0-beat;
#X obj 406 412 r \$0-n_sub;
#X obj 559 412 r \$0-reset;
#X obj 559 434 outlet reset;
#X obj 1564 129 r \$0-n_num;
#X obj 1565 149 r \$0-n_sub;
#X obj 1325 313 s \$1-metroFreq;
#X obj 217 434 outlet double;
#X obj 541 758 dac~;
#X obj 471 153 hsl 85 15 0 1 0 0 \$0-mul empty Click -2 -8 0 10 -262144
-1 -1 0 1;
#X obj 542 733 *~;
#X text 537 590 --- Click Track ---;
#N canvas 26 75 540 423 clicks 0;
#X obj 37 149 noise~;
#X obj 121 138 vline~;
#X obj 102 245 *~;
#X obj 38 196 lop~ 250;
#X obj 121 72 inlet noire;
#X msg 121 94 bang;
#X obj 258 194 bp~ 1000 10;
#X obj 257 250 *~;
#X obj 361 194 vline~;
#X msg 361 150 bang;
#X obj 361 128 inlet double;
#X obj 173 314 *~ 2;
#X obj 173 336 outlet~;
#X msg 361 172 0 \, 1 1 \, 0 5 1;
#X msg 121 116 0 \, 1 2 \, 0 50 2;
#X connect 0 0 3 0;
#X connect 0 0 6 0;
#X connect 1 0 2 1;
#X connect 2 0 11 0;
#X connect 3 0 2 0;
#X connect 4 0 5 0;
#X connect 5 0 14 0;
#X connect 6 0 7 0;
#X connect 7 0 11 0;
#X connect 8 0 7 1;
#X connect 9 0 13 0;
#X connect 10 0 9 0;
#X connect 11 0 12 0;
#X connect 13 0 8 0;
#X connect 14 0 1 0;
#X restore 541 630 pd clicks;
#X floatatom 560 153 5 0 0 0 - #0-mul -;
#X obj 541 670 *~;
#X obj 451 153 tgl 15 0 empty empty empty 17 7 0 10 -262144 -1 -1 0
1;
#X obj 601 609 r \$0-beat;
#X obj 541 609 r \$0-bar;
#X obj 354 132 bng 15 250 50 0 empty empty +1 17 7 0 10 -262144 -1
-1;
#X obj 485 413 r \$0-barDur;
#X obj 485 435 outlet dur;
#X msg 177 -17 6;
#X msg 214 -16 8;
#X msg 79 -17 0;
#X obj 406 434 outlet sub;
#X obj 321 411 r \$0-n_num;
#X obj 321 433 outlet num;
#X obj 95 380 s \$0-inStart;
#X obj -156 408 r \$0-start;
#X obj -156 431 outlet start;
#X connect 0 0 92 0;
#X connect 1 0 0 0;
#X connect 1 0 2 0;
#X connect 1 0 4 0;
#X connect 2 0 3 0;
#X connect 3 0 1 1;
#X connect 4 0 5 0;
#X connect 5 0 6 0;
#X connect 5 0 8 0;
#X connect 5 0 9 0;
#X connect 6 0 7 0;
#X connect 7 0 5 1;
#X connect 8 0 85 0;
#X connect 9 0 10 0;
#X connect 10 0 11 0;
#X connect 10 0 12 0;
#X connect 11 0 10 1;
#X connect 12 0 64 0;
#X connect 13 0 15 0;
#X connect 13 0 91 0;
#X connect 14 0 18 0;
#X connect 15 0 20 0;
#X connect 15 0 22 1;
#X connect 16 0 17 0;
#X connect 17 0 13 0;
#X connect 18 0 16 0;
#X connect 18 1 13 1;
#X connect 19 0 26 0;
#X connect 20 0 39 0;
#X connect 21 0 39 0;
#X connect 21 1 39 1;
#X connect 22 0 1 0;
#X connect 22 0 82 0;
#X connect 27 0 1 1;
#X connect 28 0 5 1;
#X connect 29 0 10 1;
#X connect 30 0 21 0;
#X connect 31 0 34 0;
#X connect 32 0 3 1;
#X connect 33 0 7 1;
#X connect 34 0 17 0;
#X connect 34 1 17 1;
#X connect 34 1 20 1;
#X connect 39 0 65 0;
#X connect 40 0 41 0;
#X connect 41 0 14 0;
#X connect 42 0 22 0;
#X connect 42 1 43 0;
#X connect 43 0 14 0;
#X connect 47 0 42 0;
#X connect 48 0 19 0;
#X connect 49 0 14 0;
#X connect 50 0 112 0;
#X connect 51 0 52 0;
#X connect 53 0 54 0;
#X connect 55 0 56 0;
#X connect 57 0 58 0;
#X connect 59 0 60 0;
#X connect 59 0 106 0;
#X connect 59 0 107 0;
#X connect 59 0 108 0;
#X connect 60 0 61 0;
#X connect 77 0 76 0;
#X connect 79 0 78 0;
#X connect 80 0 81 0;
#X connect 83 0 84 0;
#X connect 86 0 109 0;
#X connect 87 0 88 0;
#X connect 95 0 93 0;
#X connect 95 0 93 1;
#X connect 97 0 99 0;
#X connect 98 0 95 1;
#X connect 99 0 95 0;
#X connect 100 0 99 1;
#X connect 101 0 97 1;
#X connect 102 0 97 0;
#X connect 103 0 10 0;
#X connect 104 0 105 0;
#X connect 106 0 62 0;
#X connect 107 0 63 0;
#X connect 108 0 100 0;
#X connect 108 0 94 0;
#X connect 110 0 111 0;
#X connect 113 0 114 0;
#X coords 0 -1 1 1 500 77 2 100 100;
