#N canvas 631 496 309 214 10;
#X obj 24 10 inlet;
#X obj 24 177 outlet;
#X obj 24 63 noise~;
#X obj 24 101 snapshot~;
#X obj 88 46 \$1;
#X obj 24 29 t b b b;
#X obj 144 142 t b f;
#X msg 144 161 1;
#X obj 144 180 /;
#X obj 49 120 f;
#X obj 24 120 -;
#X obj 24 158 +;
#X obj 24 139 / 2;
#X obj 24 82 *~;
#X obj 144 46 \$2;
#X obj 144 104 min 1;
#X obj 144 123 max 0.0001;
#X obj 88 65 max 1;
#X obj 144 66 sel 0;
#X msg 144 85 0.1;
#X connect 0 0 5 0;
#X connect 2 0 13 0;
#X connect 3 0 10 0;
#X connect 4 0 17 0;
#X connect 5 0 3 0;
#X connect 5 1 9 0;
#X connect 5 2 4 0;
#X connect 5 2 14 0;
#X connect 6 0 7 0;
#X connect 6 1 8 1;
#X connect 7 0 8 0;
#X connect 8 0 12 1;
#X connect 9 0 11 1;
#X connect 9 0 10 1;
#X connect 10 0 12 0;
#X connect 11 0 9 1;
#X connect 11 0 1 0;
#X connect 12 0 11 0;
#X connect 13 0 3 0;
#X connect 14 0 18 0;
#X connect 15 0 16 0;
#X connect 16 0 6 0;
#X connect 17 0 13 1;
#X connect 18 0 19 0;
#X connect 18 1 15 0;
#X connect 19 0 15 0;
