#N canvas 263 15 1552 982 10;
#N canvas 0 0 450 300 (subpatch) 0;
#X array \$0-loadedNotes 128 float 3;
#A 0 0 0 0 0 0 0 0 0 0 0 0 0 0 0 0 0 0 0 0 0 0 0 0 0 1 0 0 1 0 0 1
0 0 1 0 0 1 0 0 1 0 0 1 0 0 1 0 0 1 0 0 1 0 0 1 0 0 1 0 0 1 0 0 1 0
0 1 0 0 1 0 0 1 0 0 1 0 0 1 0 0 1 0 0 1 0 0 1 0 0 1 0 0 1 0 0 1 0 0
0 0 0 0 0 0 0 0 0 0 0 0 0 0 0 0 0 0 0 0 0 0 0 0 0 0 0 0 0;
#X coords 0 2 127 -1 200 140 1 0 0;
#X restore 948 -536 graph;
#X obj 949 -289 until;
#X text 992 -385 quantité de notes chargées dans les arrays;
#X obj 949 -226 scounter;
#X obj 949 -204 * 3;
#X obj 949 -160 t b f;
#X msg 949 -138 1;
#X obj 949 -102 tabwrite \$0-loadedNotes;
#X obj 1082 13 pack \$0;
#X msg 1082 35 \; \$1-loadedNotes const 0;
#X obj 1082 -10 bng 15 250 50 0 empty empty empty 17 7 0 10 -262144
-1 -1;
#N canvas 824 278 450 675 instNotes 0;
#N canvas 0 0 450 300 (subpatch) 0;
#X array \$0-notes 6.7032e+006 float 2;
#X coords 0 1 6.7032e+006 -1 200 140 1 0 0;
#X restore 181 211 graph;
#X obj 59 358 list prepend \$0;
#X msg 59 408 read -resize \$2 \$1-notes;
#X obj 59 430 soundfiler;
#X obj 59 268 loadbang;
#X msg 59 290 pianoNotesB.wav;
#X connect 1 0 2 0;
#X connect 2 0 3 0;
#X connect 4 0 5 0;
#X connect 5 0 1 0;
#X restore 172 -507 pd instNotes;
#X obj 949 -182 + 24;
#X text 981 -183 premiere note;
#X obj 949 -362 t f b;
#X obj 119 -304 pack f f f;
#X obj 462 -209 s \$0-attack;
#X obj 489 -231 s \$0-decay;
#X obj 516 -254 s \$0-sustain;
#X obj 543 -275 s \$0-release;
#X obj 411 5 catch~ \$0-voicesOut-L;
#X obj 486 37 catch~ \$0-voicesOut-R;
#X obj 462 -302 unpack f f f f;
#X obj 462 -352 loadbang;
#X obj 486 239 *~ 0.5;
#X obj 411 238 *~ 0.5;
#X msg 949 -386 25;
#X obj 118 -376 inlet noteVel;
#X obj 118 -354 unpack f f;
#X obj 447 -383 inlet adsr;
#X obj 256 -150 pianoVoice \$0;
#X obj 353 -443 notein;
#X obj 353 -421 pack;
#X msg 462 -328 0 250 1 200;
#X floatatom 327 -353 5 0 0 0 - - -;
#X obj 241 -130 pianoVoice \$0;
#X obj 226 -110 pianoVoice \$0;
#X obj 210 -90 pianoVoice \$0;
#X obj 195 -70 pianoVoice \$0;
#X obj 180 -50 pianoVoice \$0;
#X obj 164 -31 pianoVoice \$0;
#X obj 149 -10 pianoVoice \$0;
#X obj 134 10 pianoVoice \$0;
#X obj 119 29 pianoVoice \$0;
#X obj 411 61 lop~ 3000;
#X obj 486 62 lop~ 3000;
#X obj 411 91 lop~ 3000;
#X obj 486 92 lop~ 3000;
#X obj 411 297 outlet~;
#X obj 486 297 outlet~;
#X obj 118 -326 poly 15 1;
#X obj 119 -282 route 1 2 3 4 5 6 7 8 9 10 11 12 13 14 15;
#X obj 346 -250 pianoVoice \$0;
#X obj 331 -230 pianoVoice \$0;
#X obj 316 -210 pianoVoice \$0;
#X obj 300 -190 pianoVoice \$0;
#X obj 285 -170 pianoVoice \$0;
#X connect 1 0 3 0;
#X connect 3 0 4 0;
#X connect 4 0 12 0;
#X connect 5 0 6 0;
#X connect 5 1 7 1;
#X connect 6 0 7 0;
#X connect 8 0 9 0;
#X connect 10 0 8 0;
#X connect 12 0 5 0;
#X connect 14 0 1 0;
#X connect 14 1 3 1;
#X connect 15 0 51 0;
#X connect 20 0 44 0;
#X connect 21 0 45 0;
#X connect 22 0 16 0;
#X connect 22 1 17 0;
#X connect 22 2 18 0;
#X connect 22 3 19 0;
#X connect 23 0 33 0;
#X connect 24 0 49 0;
#X connect 25 0 48 0;
#X connect 26 0 14 0;
#X connect 27 0 28 0;
#X connect 28 0 50 0;
#X connect 28 1 50 1;
#X connect 29 0 22 0;
#X connect 31 0 32 0;
#X connect 31 0 34 0;
#X connect 31 1 32 1;
#X connect 32 0 28 0;
#X connect 33 0 22 0;
#X connect 44 0 46 0;
#X connect 45 0 47 0;
#X connect 46 0 25 0;
#X connect 47 0 24 0;
#X connect 50 0 15 0;
#X connect 50 1 15 1;
#X connect 50 2 15 2;
#X connect 51 0 43 0;
#X connect 51 1 42 0;
#X connect 51 2 41 0;
#X connect 51 3 40 0;
#X connect 51 4 39 0;
#X connect 51 5 38 0;
#X connect 51 6 37 0;
#X connect 51 7 36 0;
#X connect 51 8 35 0;
#X connect 51 9 30 0;
#X connect 51 10 56 0;
#X connect 51 11 55 0;
#X connect 51 12 54 0;
#X connect 51 13 53 0;
#X connect 51 14 52 0;
