#N canvas 429 186 350 217 10;
#X obj 63 33 inlet bang;
#X obj 63 54 t b b;
#X obj 63 154 outlet;
#X obj 115 79 rand_f;
#X obj 63 79 rand_f;
#X obj 63 105 +;
#X obj 63 129 * 0.5;
#X text 9 5 Générateur aléatoire triangulaire.;
#X connect 0 0 1 0;
#X connect 1 0 4 0;
#X connect 1 1 3 0;
#X connect 3 0 5 1;
#X connect 4 0 5 0;
#X connect 5 0 6 0;
#X connect 6 0 2 0;
