#N canvas 429 186 419 208 10;
#X obj 63 33 inlet bang;
#X obj 63 54 t b b;
#X obj 63 126 outlet;
#X obj 114 79 rand_f;
#X obj 63 79 rand_f;
#X text 9 5 Générateur aléatoire favorisant les grandes valeurs.;
#X obj 63 105 max;
#X connect 0 0 1 0;
#X connect 1 0 4 0;
#X connect 1 1 3 0;
#X connect 3 0 6 1;
#X connect 4 0 6 0;
#X connect 6 0 2 0;
