#N canvas 0 0 450 300 10;
#X obj 89 -21 inlet index;
#X obj 89 1 t f f;
#X obj 89 23 % 7;
#X obj 136 67 div 7;
#X obj 163 -7 r scaleman_scaleSize;
#X obj 136 89 * 12;
#X obj 89 164 +;
#X obj 89 186 outlet;
#X obj 89 135 tabread scaleman-scale;
#X connect 0 0 1 0;
#X connect 1 0 2 0;
#X connect 1 1 3 0;
#X connect 2 0 8 0;
#X connect 3 0 5 0;
#X connect 4 0 3 1;
#X connect 4 0 2 1;
#X connect 5 0 6 1;
#X connect 6 0 7 0;
#X connect 8 0 6 0;
