#N canvas 444 203 1246 688 10;
#X obj -84 -502 loadbang;
#X msg -84 -480 0;
#X obj -32 -429 sel 0 1 2 3 4 5;
#X obj -32 -452 t f b;
#X msg -32 -405 0 2 4 5 7 9 11;
#X msg -32 -385 0 2 3 5 7 8 10;
#X msg -32 -365 0 2 3 5 7 8 11;
#X msg -32 -345 0 2 5 7 9;
#X msg -32 -325 0 2 4 6 8 10;
#X msg -32 -305 0 1 2 3 4 5 6 7 8 9 10 11 12;
#X obj -32 -258 list;
#X obj -32 -236 t l l b;
#X obj -46 -66 t f b;
#X obj 17 -25 scounter;
#X obj -46 -195 iter2;
#X obj -9 -195 list length;
#X obj 109 155 hradio 17 1 0 12 empty empty empty 0 -8 0 10 -262144
-1 -1 2;
#X text 112 140 C C# D D# E F F# G Ab A Bb B;
#X text 119 128 -------- tonique --------;
#X obj 117 189 vradio 15 1 0 6 empty empty empty 0 -8 0 10 -262144
-1 -1 0;
#X text 135 233 penta;
#X text 135 248 par tons;
#X text 134 264 dodécaphonique;
#X text 135 189 majeure;
#X text 135 204 mineure mélodique;
#X text 135 219 mineure harmonique;
#X obj -62 276 s \$0-scaleType;
#X obj -40 166 s \$0-tonique;
#X obj -32 -508 r \$0-scaleType;
#N canvas 0 0 450 300 (subpatch) 0;
#X array scaleman-scale 7 float 3;
#A 0 2 4 6 7 9 11 13;
#X coords 0 24 7 0 200 140 1 0 0;
#X restore 173 -478 graph;
#X obj 189 -158 s scaleman_scaleSize;
#X obj -46 -17 +;
#X obj -126 -94 r \$0-tonique;
#X obj -126 -72 t b f;
#X obj -32 -486 f;
#X obj -46 20 tabwrite scaleman-scale;
#X msg -9 -159 \; scaleman-scale resize \$1;
#X connect 0 0 1 0;
#X connect 1 0 3 0;
#X connect 2 0 4 0;
#X connect 2 1 5 0;
#X connect 2 2 6 0;
#X connect 2 3 7 0;
#X connect 2 4 8 0;
#X connect 2 5 9 0;
#X connect 3 0 2 0;
#X connect 4 0 10 0;
#X connect 5 0 10 0;
#X connect 6 0 10 0;
#X connect 7 0 10 0;
#X connect 8 0 10 0;
#X connect 9 0 10 0;
#X connect 10 0 11 0;
#X connect 11 0 14 0;
#X connect 11 1 15 0;
#X connect 11 2 13 1;
#X connect 12 0 31 0;
#X connect 12 1 13 0;
#X connect 13 0 35 1;
#X connect 14 0 12 0;
#X connect 15 0 36 0;
#X connect 15 0 30 0;
#X connect 16 0 27 0;
#X connect 19 0 26 0;
#X connect 28 0 34 0;
#X connect 31 0 35 0;
#X connect 32 0 33 0;
#X connect 33 0 34 0;
#X connect 33 1 31 1;
#X connect 34 0 3 0;
#X coords 0 -1 1 1 225 200 1 100 100;
