#N canvas 1199 347 450 293 10;
#X obj 107 119 inlet bang;
#X obj 107 171 f;
#X obj 133 171 + 1;
#X obj 107 193 outlet;
#X obj 176 119 inlet reset;
#X msg 176 141 0;
#X connect 0 0 1 0;
#X connect 1 0 2 0;
#X connect 1 0 3 0;
#X connect 2 0 1 1;
#X connect 4 0 5 0;
#X connect 5 0 1 1;
