#N canvas 812 96 939 840 10;
#X obj 19 26 mtof;
#X obj 19 48 osc~;
#X obj 63 378 vline~;
#X obj 215 243 sel 0;
#X floatatom 215 328 5 0 0 0 - - -;
#X obj 19 -18 unpack f f;
#X obj 19 399 *~;
#X obj 86 220 r \$1-attack;
#X obj 109 241 r \$1-decay;
#X obj 132 262 r \$1-sustain;
#X obj 260 247 r \$1-release;
#X obj 19 -124 inlet note-vel;
#X obj 74 451 * 0.00787402;
#X text 152 450 1 / 127;
#X obj 63 308 pack f f f f;
#X obj 35 473 f;
#X obj 35 429 > 0;
#X obj 35 451 sel 1;
#X obj 20 548 *~;
#X obj 63 190 stripnote;
#X obj 114 120 t f f f;
#X msg 63 338 0 \, 1 \$2 \, \$4 \$3 \$2;
#X obj 215 265 f;
#X msg 215 306 0 \$1;
#X obj 20 570 fcpan;
#X obj 20 634 throw~ \$1-outL;
#X obj 48 615 throw~ \$1-outR;
#X obj 19 -48 t l b b;
#N canvas 431 363 641 300 panning 0;
#X obj 417 277 random 101;
#X obj 417 299 * 0.01;
#X obj 436 323 pack f f;
#X obj 533 124 r \$1-barD;
#X obj 432 219 f;
#X obj 456 219 f;
#X obj 533 148 * 2;
#X obj 557 148 * 0.5;
#X obj 481 219 f;
#X obj 594 148 * 0.25;
#X obj 638 148 * 4;
#X obj 506 219 f;
#X obj 530 219 f;
#X obj 438 165 sel 0 1 2 3 4;
#X obj 438 143 random 5;
#X obj 481 250 f;
#X msg 436 345 \$1 \$2;
#X obj 436 367 line;
#X obj 439 97 inlet;
#X obj 325 219 inlet;
#X obj 436 389 outlet;
#X connect 0 0 1 0;
#X connect 1 0 2 0;
#X connect 2 0 16 0;
#X connect 3 0 4 1;
#X connect 3 0 6 0;
#X connect 3 0 7 0;
#X connect 3 0 9 0;
#X connect 3 0 10 0;
#X connect 4 0 15 0;
#X connect 5 0 15 0;
#X connect 6 0 5 1;
#X connect 7 0 8 1;
#X connect 8 0 15 0;
#X connect 9 0 11 1;
#X connect 10 0 12 1;
#X connect 11 0 15 0;
#X connect 12 0 15 0;
#X connect 13 0 4 0;
#X connect 13 1 5 0;
#X connect 13 2 8 0;
#X connect 13 3 11 0;
#X connect 13 4 12 0;
#X connect 14 0 13 0;
#X connect 15 0 2 1;
#X connect 16 0 17 0;
#X connect 17 0 20 0;
#X connect 18 0 14 0;
#X connect 19 0 0 0;
#X restore 47 542 pd panning;
#X connect 0 0 1 0;
#X connect 1 0 6 0;
#X connect 2 0 6 1;
#X connect 3 0 22 0;
#X connect 5 0 0 0;
#X connect 5 0 19 0;
#X connect 5 1 20 0;
#X connect 6 0 18 0;
#X connect 7 0 14 1;
#X connect 8 0 14 2;
#X connect 9 0 14 3;
#X connect 10 0 22 1;
#X connect 11 0 27 0;
#X connect 12 0 15 1;
#X connect 14 0 21 0;
#X connect 15 0 18 1;
#X connect 16 0 17 0;
#X connect 17 0 15 0;
#X connect 18 0 24 0;
#X connect 19 0 14 0;
#X connect 20 0 19 1;
#X connect 20 0 3 0;
#X connect 20 1 16 0;
#X connect 20 2 12 0;
#X connect 21 0 2 0;
#X connect 22 0 23 0;
#X connect 23 0 2 0;
#X connect 23 0 4 0;
#X connect 24 0 25 0;
#X connect 24 1 26 0;
#X connect 27 0 5 0;
#X connect 27 1 28 0;
#X connect 27 2 28 1;
#X connect 28 0 24 1;
