#N canvas 0 0 1099 652 10;
#X obj 453 163 f \$1;
#X obj 533 162 f \$2;
#X obj 607 163 f \$3;
#X obj 693 163 f \$4;
#X obj 453 97 inlet attack;
#X obj 533 98 inlet decay;
#X obj 607 99 inlet sustain;
#X obj 693 99 inlet release;
#X obj 607 185 clip 0 1;
#X obj 458 122 loadbang;
#X obj 123 93 inlet note-vel;
#X obj 123 163 route 1 2 3 4 5 6 7 8 9 10;
#X obj 123 141 pack f f f;
#X obj 453 210 s \$0-attack;
#X obj 533 210 s \$0-decay;
#X obj 607 210 s \$0-sustain;
#X obj 693 210 s \$0-release;
#X obj 94 443 outlet~;
#X obj 281 276 sinusynth_voice~ \$0;
#X obj 281 297 sinusynth_voice~ \$0;
#X obj 281 339 sinusynth_voice~ \$0;
#X obj 281 193 sinusynth_voice~ \$0;
#X obj 281 381 sinusynth_voice~ \$0;
#X obj 281 360 sinusynth_voice~ \$0;
#X obj 281 318 sinusynth_voice~ \$0;
#X obj 281 255 sinusynth_voice~ \$0;
#X obj 281 234 sinusynth_voice~ \$0;
#X obj 281 214 sinusynth_voice~ \$0;
#X obj 811 98 inlet barDur;
#X obj 811 210 s \$0-barD;
#X obj 186 444 outlet~;
#X obj 94 421 catch~ \$0-outL;
#X obj 186 422 catch~ \$0-outR;
#X obj 123 119 poly 10;
#X connect 0 0 13 0;
#X connect 1 0 14 0;
#X connect 2 0 8 0;
#X connect 3 0 16 0;
#X connect 4 0 0 0;
#X connect 5 0 1 0;
#X connect 6 0 2 0;
#X connect 7 0 3 0;
#X connect 8 0 15 0;
#X connect 9 0 0 0;
#X connect 9 0 1 0;
#X connect 9 0 2 0;
#X connect 9 0 3 0;
#X connect 10 0 33 0;
#X connect 11 0 22 0;
#X connect 11 1 23 0;
#X connect 11 2 20 0;
#X connect 11 3 24 0;
#X connect 11 4 19 0;
#X connect 11 5 18 0;
#X connect 11 6 25 0;
#X connect 11 7 26 0;
#X connect 11 8 27 0;
#X connect 11 9 21 0;
#X connect 12 0 11 0;
#X connect 28 0 29 0;
#X connect 31 0 17 0;
#X connect 32 0 30 0;
#X connect 33 0 12 0;
#X connect 33 1 12 1;
#X connect 33 2 12 2;
