#N canvas 361 219 835 434 10;
#X obj 384 -54 inlet~;
#X obj 383 23 rfft~;
#X obj 383 56 *~;
#X obj 414 56 *~;
#X obj 383 82 sqrt~;
#X obj 383 103 biquad~ 0 0 0 0 1;
#X text 447 24 Fourier series;
#X text 447 72 magnitude;
#X text 445 57 calculate;
#X text 448 -54 signal to analyze;
#X text 514 97 delay two samples;
#X text 513 113 for better graphing;
#X obj 604 26 block~ 1024 1;
#X text -20 186 This subpatch computes the spectrum of the incoming
signal with a (rectangular windowed) FFT.;
#N canvas 0 0 450 300 (subpatch) 0;
#X array \$0-spectrum 512 float 0;
#X coords 0 100 511 0 257 130 1 0 0;
#X restore -29 6 graph;
#X obj 229 23 vsl 15 110 0 2 0 0 \$0-gain \$0-init empty 0 -9 0 10
-262144 -1 -1 5450 1;
#X obj 279 6 loadbang;
#X obj 384 -5 *~ 1;
#X obj 449 179 tabwrite~ \$0-spectrum;
#X obj 409 -29 r \$0-gain;
#X obj 449 154 metro 50;
#X obj 229 6 tgl 15 0 \$0-go \$0-init empty 17 7 0 10 -262144 -1 -1
1 1;
#X obj 449 132 r \$0-go;
#X msg 279 28 1;
#X obj 279 50 s \$0-init;
#X connect 0 0 17 0;
#X connect 1 0 2 0;
#X connect 1 0 2 1;
#X connect 1 1 3 0;
#X connect 1 1 3 1;
#X connect 2 0 4 0;
#X connect 3 0 4 0;
#X connect 4 0 5 0;
#X connect 5 0 18 0;
#X connect 16 0 23 0;
#X connect 17 0 1 0;
#X connect 19 0 17 1;
#X connect 20 0 18 0;
#X connect 22 0 20 0;
#X connect 23 0 24 0;
#X coords 0 -1 1 1 275 132 2 -30 5;
