#N canvas 815 164 665 624 10;
#X obj 297 599 r \$1_toggle;
#X msg 297 621 \$1 20;
#X obj 90 660 *~;
#X obj 200 660 *~;
#X obj 90 318 inlet~ L;
#X obj 91 774 dry-wet;
#X obj 90 456 *~;
#X obj 110 138 vsl 15 128 0 1 0 0 empty empty Vol 0 -9 0 10 -262144
-1 -1 0 1;
#X floatatom 110 274 5 0 0 0 - - -;
#X obj 90 947 outlet~ dry-L;
#X obj 103 927 outlet~ dry-R;
#X obj 116 887 outlet~ wet-L;
#X obj 129 867 outlet~ wet-R;
#X obj 356 163 inlet rvb;
#X obj 135 212 hsl 35 12 0 1 0 0 empty empty Rvb -2 -8 0 10 -262144
-1 -1 0 1;
#X floatatom 132 229 5 0 0 0 - - -;
#X obj 200 456 *~;
#X obj 200 318 inlet~ R;
#X obj 132 138 tgl 15 0 empty empty on/off 17 7 0 10 -262144 -1 -1
0 1;
#X obj 293 163 inlet vol;
#X obj 298 368 r \$1_mul;
#X msg 393 719 \$1 20;
#X obj 393 741 line;
#X obj 298 439 line~;
#X obj 297 643 line~;
#X obj 393 648 r \$1_rvb;
#X obj 493 672 loadbang;
#X msg 497 757 0;
#X obj 393 670 pipe 25;
#X obj 298 394 pack f 20;
#X msg 298 417 \$1 \$2;
#X obj 355 368 r \$1_lineTime;
#X connect 0 0 1 0;
#X connect 1 0 24 0;
#X connect 2 0 5 0;
#X connect 3 0 5 1;
#X connect 4 0 6 0;
#X connect 5 0 9 0;
#X connect 5 1 10 0;
#X connect 5 2 11 0;
#X connect 5 3 12 0;
#X connect 6 0 2 0;
#X connect 7 0 8 0;
#X connect 8 0 30 0;
#X connect 13 0 14 0;
#X connect 14 0 15 0;
#X connect 15 0 5 2;
#X connect 16 0 3 0;
#X connect 17 0 16 0;
#X connect 19 0 7 0;
#X connect 20 0 29 0;
#X connect 21 0 22 0;
#X connect 22 0 5 2;
#X connect 23 0 6 1;
#X connect 23 0 16 1;
#X connect 24 0 2 1;
#X connect 24 0 3 1;
#X connect 25 0 28 0;
#X connect 26 0 27 0;
#X connect 27 0 5 2;
#X connect 28 0 21 0;
#X connect 29 0 30 0;
#X connect 30 0 23 0;
#X connect 31 0 29 1;
#X coords 0 -1 1 1 100 200 1 100 100;
