#N canvas 828 278 695 597 10;
#N canvas 171 23 1405 982 Wind 1;
#X obj 229 -920 noise~;
#X obj 229 -898 s~ \$0-white;
#X obj 383 -477 r wind_BG_freqBase;
#X obj 408 -456 r wind_BG_freqAmbitus;
#X obj 433 -432 r wind_BG_Q;
#X obj 458 -411 r wind_BG_hpfFreq;
#X obj 483 -387 r wind_BG_noiseAdd;
#X obj 508 -325 r wind_BG_bp1Freq;
#X obj 583 -245 r wind_BG_bp2Freq;
#X obj 608 -225 r wind_BG_bp2Q;
#X obj 633 -205 r wind_BG_bp2Mul;
#X obj 658 -163 r wind_BG_bp2Freq;
#X obj 683 -143 r wind_BG_bp2Q;
#X obj 708 -123 r wind_BG_bp2Mul;
#N canvas 224 155 1663 813 background______________________________________________
0;
#X obj -160 -1527 *~;
#X obj -59 -1651 r~ \$0-white;
#X obj -160 -1475 rzero~;
#X text -153 -1675 background;
#X obj -159 -977 fcpan 0.5;
#X obj -126 -1499 clip~ 0 0.99;
#X obj -126 -1521 *~ 0.8;
#X obj -160 -1560 +~ 0.2;
#X obj -40 -1595 +~ 100;
#X obj -159 -1116 hip~ 150;
#X obj -159 -1094 hip~ 150;
#X obj -159 -1072 hip~ 150;
#X obj -159 -1050 hip~ 150;
#X obj -58 -1544 vcf~ 10;
#X obj -40 -1616 *~ 200;
#X obj -19 -1174 *~ 1;
#X obj -159 -1172 *~ 3;
#X obj -158 -1020 *~ 4;
#X obj -95 -1174 *~ 1;
#X obj -335 -1790 inlet freqBase;
#X obj -238 -1790 inlet freqAmbitus;
#X obj -335 -1768 s \$0-freqBase;
#X obj 30 -1626 r \$0-freqBase;
#X obj -238 -1768 s \$0-freqAmbitus;
#X obj 31 -1648 r \$0-freqAmbitus;
#X obj 14 -1790 inlet hpfFreq;
#X obj 14 -1768 s \$0-hpfFreq;
#X obj 91 -1133 r \$0-hpfFreq;
#X obj 267 -1790 inlet bp1Freq;
#X obj 267 -1768 s \$0-bp1Freq;
#X obj 130 -1790 inlet noiseAdd;
#X obj 130 -1768 s \$0-noiseAdd;
#X obj -127 -1585 r \$0-noiseAdd;
#X obj 357 -1790 inlet bp1Q;
#X obj 357 -1768 s \$0-bp1Q;
#X obj 427 -1790 inlet bp1Mul;
#X obj 427 -1768 s \$0-bp1Mul;
#X obj 547 -1790 inlet bp2Freq;
#X obj 547 -1768 s \$0-bp2Freq;
#X obj 637 -1790 inlet bp2Q;
#X obj 637 -1768 s \$0-bp2Q;
#X obj 707 -1768 s \$0-bp2Mul;
#X obj 707 -1790 inlet bp2Mul;
#X obj 827 -1790 inlet bp3Freq;
#X obj 827 -1768 s \$0-bp3Freq;
#X obj 917 -1768 s \$0-bp3Q;
#X obj 917 -1790 inlet bp3Q;
#X obj 987 -1768 s \$0-bp3Mul;
#X obj 987 -1790 inlet bp3Mul;
#X obj 20 -1452 r \$0-bp1Freq;
#X obj 21 -1408 r \$0-bp1Q;
#X obj 21 -1387 r \$0-bp1Mul;
#X obj 105 -1453 r \$0-bp2Freq;
#X obj 105 -1408 r \$0-bp2Q;
#X obj 105 -1387 r \$0-bp2Mul;
#X obj 205 -1459 r \$0-bp3Freq;
#X obj 205 -1408 r \$0-bp3Q;
#X obj 205 -1387 r \$0-bp3Mul;
#X obj -88 -1789 inlet Q;
#X obj -88 -1767 s \$0-Q;
#X obj -19 -1569 r \$0-Q;
#X obj 1124 -1789 inlet mul;
#X obj 1124 -1767 s \$0-mul;
#X obj -69 -1041 r \$0-mul;
#X obj -160 -952 outlet~ L;
#X obj -98 -952 outlet~ R;
#X obj -160 -1651 vd~ windspeed 0;
#X obj 20 -1430 sig~;
#X obj -159 -1198 vcf~ 1;
#X obj -95 -1198 vcf~ 5;
#X obj 105 -1431 sig~;
#X obj 205 -1437 sig~;
#X obj -20 -1198 vcf~ 2;
#X connect 0 0 2 0;
#X connect 1 0 13 0;
#X connect 2 0 68 0;
#X connect 2 0 69 0;
#X connect 2 0 72 0;
#X connect 4 0 64 0;
#X connect 4 1 65 0;
#X connect 5 0 2 1;
#X connect 6 0 5 0;
#X connect 7 0 0 0;
#X connect 7 0 6 0;
#X connect 8 0 13 1;
#X connect 9 0 10 0;
#X connect 10 0 11 0;
#X connect 11 0 12 0;
#X connect 12 0 17 0;
#X connect 13 0 0 1;
#X connect 14 0 8 0;
#X connect 15 0 9 0;
#X connect 16 0 9 0;
#X connect 17 0 4 0;
#X connect 18 0 9 0;
#X connect 19 0 21 0;
#X connect 20 0 23 0;
#X connect 22 0 8 1;
#X connect 24 0 14 1;
#X connect 25 0 26 0;
#X connect 27 0 9 1;
#X connect 27 0 10 1;
#X connect 27 0 11 1;
#X connect 27 0 12 1;
#X connect 28 0 29 0;
#X connect 30 0 31 0;
#X connect 32 0 7 1;
#X connect 33 0 34 0;
#X connect 35 0 36 0;
#X connect 37 0 38 0;
#X connect 39 0 40 0;
#X connect 42 0 41 0;
#X connect 43 0 44 0;
#X connect 46 0 45 0;
#X connect 48 0 47 0;
#X connect 49 0 67 0;
#X connect 50 0 68 2;
#X connect 51 0 16 1;
#X connect 52 0 70 0;
#X connect 53 0 69 2;
#X connect 54 0 18 1;
#X connect 55 0 71 0;
#X connect 56 0 72 2;
#X connect 57 0 15 1;
#X connect 58 0 59 0;
#X connect 60 0 13 2;
#X connect 61 0 62 0;
#X connect 63 0 17 1;
#X connect 66 0 7 0;
#X connect 66 0 14 0;
#X connect 67 0 68 1;
#X connect 68 0 16 0;
#X connect 69 0 18 0;
#X connect 70 0 69 1;
#X connect 71 0 72 1;
#X connect 72 0 15 0;
#X restore 383 -19 pd background______________________________________________
;
#N canvas 1315 544 450 363 windspeed 0;
#X obj 73 104 +~ 1;
#X obj 73 126 *~ 0.25;
#X obj 73 248 +~;
#X obj 73 270 clip~ 0 1;
#X obj 73 292 outlet~;
#N canvas 406 457 450 300 gust 0;
#X obj 137 90 noise~;
#X obj 137 112 lop~ 0.5;
#X obj 137 134 lop~ 0.5;
#X obj 137 156 hip~ 0;
#X obj 137 178 *~ 50;
#X obj 137 200 *~;
#X obj 211 112 inlet~;
#X obj 211 134 +~ 0.5;
#X obj 211 156 *~;
#X obj 211 178 -~ 0.125;
#X obj 137 222 outlet~;
#X connect 0 0 1 0;
#X connect 1 0 2 0;
#X connect 2 0 3 0;
#X connect 3 0 4 0;
#X connect 4 0 5 0;
#X connect 5 0 10 0;
#X connect 6 0 7 0;
#X connect 7 0 8 0;
#X connect 7 0 8 1;
#X connect 8 0 9 0;
#X connect 9 0 5 1;
#X restore 87 158 pd gust;
#N canvas 733 503 450 300 squall 0;
#X obj 96 44 inlet~;
#X obj 96 88 -~ 0.4;
#X obj 96 110 *~ 8;
#X obj 96 132 *~;
#X obj 96 174 *~;
#X obj 176 46 noise~;
#X obj 176 68 lop~ 3;
#X obj 176 90 lop~ 3;
#X obj 176 112 hip~ 0;
#X obj 176 134 *~ 20;
#X obj 96 196 outlet~;
#X obj 96 66 max~ 0.4;
#X connect 0 0 11 0;
#X connect 1 0 2 0;
#X connect 2 0 3 0;
#X connect 2 0 3 1;
#X connect 3 0 4 0;
#X connect 4 0 10 0;
#X connect 5 0 6 0;
#X connect 6 0 7 0;
#X connect 7 0 8 0;
#X connect 8 0 9 0;
#X connect 9 0 4 1;
#X connect 11 0 1 0;
#X restore 138 158 pd squall;
#X obj 87 180 +~;
#X obj 73 81 inlet;
#X connect 0 0 1 0;
#X connect 1 0 2 0;
#X connect 1 0 5 0;
#X connect 1 0 6 0;
#X connect 2 0 3 0;
#X connect 3 0 4 0;
#X connect 5 0 7 0;
#X connect 6 0 7 1;
#X connect 7 0 2 1;
#X connect 8 0 0 0;
#X restore 60 -920 pd windspeed;
#N canvas 413 260 909 693 whistles 0;
#X obj -357 134 r~ \$0-white;
#X obj 620 13 r \$0-octaves;
#X obj 714 17 inlet pan1;
#X obj 720 37 inlet pan2;
#X obj 724 57 inlet pan3;
#X obj 728 77 inlet pan4;
#X obj 143 235 outlet~ L;
#X obj 324 234 outlet~ R;
#X obj 324 204 *~ 1;
#X obj 143 205 *~ 1;
#X obj 44 152 wind_whistle 1;
#X obj 224 -107 r wind_WH_Q;
#X obj 267 -87 r wind_WH_add;
#X obj 377 -47 r wind_WH_octRatio;
#X obj 461 -27 r wind_WH_octDamp;
#X obj 540 -7 r wind_WH_randVal;
#X obj 144 152 wind_whistle 2;
#X obj 243 152 wind_whistle 3;
#X obj 343 152 wind_whistle 4;
#X obj 74 -280 r wind_WH_freqBase;
#X obj 60 -78 f;
#X obj 60 -187 +;
#X obj 60 -328 r glimpse_distance;
#X obj 74 -258 t b f;
#X obj 322 -157 f;
#X obj 322 -228 +;
#X obj 339 -271 r wind_WH_mul;
#X obj 339 -249 t b f;
#X msg 60 -165 \$1 1000;
#X obj 60 -143 line;
#X msg 322 -206 \$1 1000;
#X obj 322 -184 line;
#X obj 60 -306 * 200;
#X obj 322 -294 * 1.5;
#X obj 190 -187 +;
#X obj 190 -328 r glimpse_distance;
#X obj 204 -258 t b f;
#X msg 190 -165 \$1 1000;
#X obj 190 -143 line;
#X obj 190 -306 * 200;
#X obj 204 -280 r wind_WH_freqAmbitus;
#X obj 147 -78 f;
#X connect 0 0 10 0;
#X connect 0 0 16 0;
#X connect 0 0 17 0;
#X connect 0 0 18 0;
#X connect 1 0 10 10;
#X connect 1 0 16 10;
#X connect 1 0 17 10;
#X connect 1 0 18 10;
#X connect 2 0 10 1;
#X connect 3 0 16 1;
#X connect 4 0 17 1;
#X connect 5 0 18 1;
#X connect 8 0 7 0;
#X connect 9 0 6 0;
#X connect 10 0 9 0;
#X connect 10 1 8 0;
#X connect 11 0 10 4;
#X connect 11 0 16 4;
#X connect 11 0 17 4;
#X connect 11 0 18 4;
#X connect 12 0 10 5;
#X connect 12 0 16 5;
#X connect 12 0 17 5;
#X connect 12 0 18 5;
#X connect 13 0 10 7;
#X connect 13 0 16 7;
#X connect 13 0 17 7;
#X connect 13 0 18 7;
#X connect 14 0 10 8;
#X connect 14 0 16 8;
#X connect 14 0 17 8;
#X connect 14 0 18 8;
#X connect 15 0 10 9;
#X connect 15 0 16 9;
#X connect 15 0 17 9;
#X connect 15 0 18 9;
#X connect 16 0 9 0;
#X connect 16 1 8 0;
#X connect 17 0 9 0;
#X connect 17 1 8 0;
#X connect 18 0 9 0;
#X connect 18 1 8 0;
#X connect 19 0 23 0;
#X connect 20 0 10 2;
#X connect 20 0 16 2;
#X connect 20 0 17 2;
#X connect 20 0 18 2;
#X connect 21 0 28 0;
#X connect 22 0 32 0;
#X connect 22 0 33 0;
#X connect 23 0 21 0;
#X connect 23 1 21 1;
#X connect 24 0 10 6;
#X connect 24 0 16 6;
#X connect 24 0 17 6;
#X connect 24 0 18 6;
#X connect 25 0 30 0;
#X connect 26 0 27 0;
#X connect 27 0 25 0;
#X connect 27 1 25 1;
#X connect 28 0 29 0;
#X connect 29 0 20 0;
#X connect 30 0 31 0;
#X connect 31 0 24 0;
#X connect 32 0 21 0;
#X connect 33 0 25 0;
#X connect 34 0 37 0;
#X connect 35 0 39 0;
#X connect 36 0 34 0;
#X connect 36 1 34 1;
#X connect 37 0 38 0;
#X connect 38 0 41 0;
#X connect 39 0 34 0;
#X connect 40 0 36 0;
#X connect 41 0 10 3;
#X connect 41 0 16 3;
#X connect 41 0 17 3;
#X connect 41 0 18 3;
#X restore 900 -49 pd whistles;
#X obj 900 -165 r whistle_pan_01;
#X obj 921 -144 r whistle_pan_02;
#X obj 942 -123 r whistle_pan_03;
#X obj 963 -102 r whistle_pan_04;
#X obj 60 -898 delwrite~ windspeed 3000;
#X obj 383 73 throw~ \$0-wind_L;
#X obj 734 73 throw~ \$0-wind_R;
#X obj 899 131 throw~ \$0-wind_L;
#X obj 962 111 throw~ \$0-wind_R;
#X obj 100 18 catch~ \$0-wind_L;
#X obj 141 37 catch~ \$0-wind_R;
#X obj 1248 -184 max~;
#X obj 1248 -163 -~;
#X obj 1248 -141 *~;
#X obj 1324 -236 sig~ 1;
#X obj 1324 -212 -~;
#X obj 1249 -75 *~;
#X obj 1342 -305 +~ 0.3;
#X obj 1389 -257 -~ 0.2;
#X obj 1341 -257 *~ 0.4;
#X obj 1248 -119 hip~ 200;
#X obj 1342 -283 lop~ 0.07;
#X obj 1342 -327 vd~ windspeed 3000;
#X obj 1248 -212 r~ \$0-white;
#X obj 1249 252 throw~ \$0-wind_L;
#X obj 1313 232 throw~ \$0-wind_R;
#X obj 1249 -97 lop~ 4000;
#X obj 1249 -54 *~ 1;
#X obj 1373 -82 r wind_leaves_mul;
#X obj 246 -57 r wind_reverb_dry-wet;
#X obj 60 -949 + 0;
#X obj 384 42 lop~ 10000;
#X obj 1350 -52 r glimpse_distance;
#X obj 733 38 lop~ 10000;
#X obj 261 -35 r glimpse_distance;
#X floatatom 261 31 5 0 0 0 - - -;
#X obj 261 -13 * -0.75;
#X obj 261 9 + 1;
#X obj 246 52 * 1;
#X obj 1249 58 *~ 1;
#X obj 1350 -30 * -1;
#X obj 1350 -8 + 1;
#X obj 60 -1341 metro 100;
#X obj 60 -1293 * 0.5;
#X obj 60 -1271 + 0.5;
#X obj 60 -1223 line;
#X msg 60 -1245 \$1 100;
#X floatatom 60 -1201 5 0 0 0 - - -;
#X obj 75 -1023 r glimpse_distance;
#X obj 75 -1001 * 0.2;
#X obj 60 -979 +;
#X obj 154 -1147 r wind_speed_min;
#X obj 75 -1167 r wind_speed_max;
#X obj 75 -1090 -;
#X obj 60 -1065 *;
#X obj 60 -1043 +;
#X obj 154 -1125 t b f f;
#X obj 60 -1364 r Wind_Play;
#X obj 60 -1316 perlin 1 0.7;
#X obj 843 -383 r wind_BG_mul;
#X obj 734 -89 f;
#X obj 813 -405 r glimpse_distance;
#X obj 813 -271 +;
#X obj 843 -361 t b f;
#X obj 813 -227 line;
#X msg 1350 14 \$1 1000;
#X obj 1350 36 line;
#X obj 101 66 *~ 10;
#X obj 140 65 *~ 10;
#X obj 634 -521 r glimpse_distance;
#X obj 634 -387 +;
#X obj 664 -477 t b f;
#X obj 634 -343 line;
#X obj 634 -499 * 20;
#X msg 813 -249 \$1 1000;
#X msg 634 -365 \$1 1000;
#X obj 664 -499 r wind_BG_bp1Q;
#X obj 757 -532 r glimpse_distance;
#X obj 793 -488 t b f;
#X obj 757 -354 line;
#X msg 757 -376 \$1 1000;
#X obj 793 -510 r wind_BG_bp1Mul;
#X obj 813 -383 * 1;
#X obj 757 -398 +;
#X obj 757 -511 * 0.5;
#X obj 1250 190 rev3~ 100 65 5000 20;
#X obj 100 100 ufader~ Wind;
#X obj 1249 88 fcpan 0.5;
#X obj 665 -1229 cnv 15 555 555 empty empty Background 20 12 0 14 -233017
-66577 0;
#X obj 697 -1179 hsl 128 15 20 30000 0 0 empty empty Base_frequency
-2 -8 0 10 -262144 -1 -1 0 1;
#X floatatom 694 -1162 9 0 0 0 - - -;
#X obj 847 -1179 hsl 128 15 0 1000 0 0 empty empty Range -2 -8 0 10
-262144 -1 -1 0 1;
#X floatatom 844 -1162 5 0 0 0 - - -;
#X obj 997 -1179 hsl 128 15 1 100 0 0 empty empty Q -2 -8 0 10 -262144
-1 -1 0 1;
#X floatatom 994 -1162 5 0 0 0 - - -;
#X obj 697 -1039 hsl 128 15 20 20000 0 0 empty empty Lowcut -2 -8 0
10 -262144 -1 -1 0 1;
#X floatatom 694 -1022 9 0 0 0 - - -;
#X obj 697 -1109 hsl 128 15 0 1 0 0 empty empty Noise_add -2 -8 0 10
-262144 -1 -1 0 1;
#X floatatom 694 -1092 4 0 0 0 - - -;
#X obj 697 -789 hsl 128 15 20 20000 0 0 empty empty Frequency -2 -8
0 10 -262144 -1 -1 0 1;
#X floatatom 694 -772 9 0 0 0 - - -;
#X connect 0 0 1 0;
#X connect 2 0 14 0;
#X connect 3 0 14 1;
#X connect 4 0 14 2;
#X connect 5 0 14 3;
#X connect 6 0 14 4;
#X connect 7 0 14 5;
#X connect 8 0 14 8;
#X connect 9 0 14 9;
#X connect 10 0 14 10;
#X connect 11 0 14 11;
#X connect 12 0 14 12;
#X connect 13 0 14 13;
#X connect 14 0 48 0;
#X connect 14 1 50 0;
#X connect 15 0 21 0;
#X connect 16 0 24 0;
#X connect 16 1 25 0;
#X connect 17 0 16 0;
#X connect 18 0 16 1;
#X connect 19 0 16 2;
#X connect 20 0 16 3;
#X connect 26 0 84 0;
#X connect 27 0 85 0;
#X connect 28 0 29 0;
#X connect 29 0 30 0;
#X connect 30 0 37 0;
#X connect 31 0 32 0;
#X connect 32 0 28 1;
#X connect 32 0 29 1;
#X connect 32 0 30 1;
#X connect 33 0 44 0;
#X connect 34 0 38 0;
#X connect 35 0 33 1;
#X connect 36 0 32 1;
#X connect 37 0 43 0;
#X connect 38 0 35 0;
#X connect 38 0 36 0;
#X connect 39 0 34 0;
#X connect 40 0 28 0;
#X connect 43 0 33 0;
#X connect 44 0 56 0;
#X connect 45 0 44 1;
#X connect 46 0 55 0;
#X connect 47 0 15 0;
#X connect 48 0 22 0;
#X connect 49 0 57 0;
#X connect 50 0 23 0;
#X connect 51 0 53 0;
#X connect 52 0 55 1;
#X connect 53 0 54 0;
#X connect 54 0 52 0;
#X connect 55 0 103 3;
#X connect 56 0 104 0;
#X connect 57 0 58 0;
#X connect 58 0 82 0;
#X connect 59 0 75 0;
#X connect 60 0 61 0;
#X connect 61 0 63 0;
#X connect 62 0 64 0;
#X connect 63 0 62 0;
#X connect 64 0 71 0;
#X connect 65 0 66 0;
#X connect 66 0 67 1;
#X connect 67 0 47 0;
#X connect 68 0 73 0;
#X connect 69 0 70 0;
#X connect 70 0 71 1;
#X connect 71 0 72 0;
#X connect 72 0 67 0;
#X connect 73 0 70 0;
#X connect 73 1 70 1;
#X connect 73 2 72 1;
#X connect 74 0 59 0;
#X connect 75 0 60 0;
#X connect 76 0 80 0;
#X connect 77 0 14 14;
#X connect 78 0 99 0;
#X connect 79 0 91 0;
#X connect 80 0 79 0;
#X connect 80 1 79 1;
#X connect 81 0 77 0;
#X connect 82 0 83 0;
#X connect 83 0 56 1;
#X connect 84 0 103 0;
#X connect 85 0 103 1;
#X connect 86 0 90 0;
#X connect 87 0 92 0;
#X connect 88 0 87 0;
#X connect 88 1 87 1;
#X connect 89 0 14 6;
#X connect 90 0 87 0;
#X connect 91 0 81 0;
#X connect 92 0 89 0;
#X connect 93 0 88 0;
#X connect 94 0 101 0;
#X connect 95 0 100 0;
#X connect 95 1 100 1;
#X connect 96 0 14 7;
#X connect 97 0 96 0;
#X connect 98 0 95 0;
#X connect 99 0 79 0;
#X connect 100 0 97 0;
#X connect 101 0 100 0;
#X connect 102 0 41 0;
#X connect 102 1 42 0;
#X connect 104 0 41 0;
#X connect 104 0 102 0;
#X connect 104 1 42 0;
#X connect 104 1 102 1;
#X connect 106 0 107 0;
#X connect 108 0 109 0;
#X connect 110 0 111 0;
#X connect 112 0 113 0;
#X connect 114 0 115 0;
#X connect 116 0 117 0;
#X coords 0 -1 1 1 100 200 2 100 100;
#X restore 92 52 pd Wind;
#X obj -131 923 *~;
#X obj -30 799 r~ \$0-white;
#X obj -131 975 rzero~;
#X text -124 775 background;
#X obj -97 951 clip~ 0 0.99;
#X obj -97 929 *~ 0.8;
#X obj -131 890 +~ 0.2;
#X obj -11 855 +~ 100;
#X obj -130 1124 hip~ 150;
#X obj -130 1146 hip~ 150;
#X obj -130 1168 hip~ 150;
#X obj -130 1190 hip~ 150;
#X obj -29 906 vcf~ 10;
#X obj -11 834 *~ 200;
#X obj -130 1042 bp~ 200 1;
#X obj 10 1066 *~ 1;
#X obj -130 1068 *~ 3;
#X obj 9 1042 bp~ 1600 2;
#X obj -129 1220 *~ 4;
#X obj -66 1042 bp~ 400 5;
#X obj -66 1066 *~ 1;
#X obj 59 824 r \$0-freqBase;
#X obj 60 802 r \$0-freqAmbitus;
#X obj 120 1107 r \$0-hpfFreq;
#X obj -98 865 r \$0-noiseAdd;
#X obj 48 947 r \$0-bp1Freq;
#X obj 48 968 r \$0-bp1Q;
#X obj 48 989 r \$0-bp1Mul;
#X obj 132 947 r \$0-bp2Freq;
#X obj 132 968 r \$0-bp2Q;
#X obj 132 989 r \$0-bp2Mul;
#X obj 232 947 r \$0-bp3Freq;
#X obj 232 968 r \$0-bp3Q;
#X obj 232 989 r \$0-bp3Mul;
#X obj 10 881 r \$0-Q;
#X obj -40 1199 r \$0-mul;
#X obj -131 1288 outlet~ L;
#X obj -69 1288 outlet~ R;
#X obj -131 799 vd~ windspeed 0;
#X obj -130 1263 fcpan 0.5;
#X connect 1 0 3 0;
#X connect 2 0 13 0;
#X connect 3 0 15 0;
#X connect 3 0 20 0;
#X connect 3 0 18 0;
#X connect 5 0 3 1;
#X connect 6 0 5 0;
#X connect 7 0 1 0;
#X connect 7 0 6 0;
#X connect 8 0 13 1;
#X connect 9 0 10 0;
#X connect 10 0 11 0;
#X connect 11 0 12 0;
#X connect 12 0 19 0;
#X connect 13 0 1 1;
#X connect 14 0 8 0;
#X connect 15 0 17 0;
#X connect 16 0 9 0;
#X connect 17 0 9 0;
#X connect 18 0 16 0;
#X connect 19 0 40 0;
#X connect 20 0 21 0;
#X connect 21 0 9 0;
#X connect 22 0 8 1;
#X connect 23 0 14 1;
#X connect 24 0 9 1;
#X connect 24 0 10 1;
#X connect 24 0 11 1;
#X connect 24 0 12 1;
#X connect 25 0 7 1;
#X connect 26 0 15 1;
#X connect 27 0 15 2;
#X connect 28 0 17 1;
#X connect 29 0 20 1;
#X connect 30 0 20 2;
#X connect 31 0 21 1;
#X connect 32 0 18 1;
#X connect 33 0 18 2;
#X connect 34 0 16 1;
#X connect 35 0 13 2;
#X connect 36 0 19 1;
#X connect 39 0 7 0;
#X connect 39 0 14 0;
#X connect 40 0 37 0;
#X connect 40 1 38 0;
