#N canvas 285 0 1388 982 10;
#X obj 652 -340 f \$1;
#X obj -52 126 *~;
#X obj -51 46 vcf~ 1000 60;
#X obj -35 104 *~;
#X obj 42 -16 loadbang;
#X obj -52 661 fcpan 0.5;
#X obj -16 -265 *~ 1000;
#X obj -16 -45 +~ 200;
#X floatatom 42 26 5 0 0 0 - - -;
#X msg 42 4 60;
#X obj -36 78 +~ 1;
#X obj -52 267 *~ 1;
#X msg -1 615 \$1 20;
#X obj -1 637 line;
#X obj 520 254 inlet freq;
#X obj 588 254 inlet amb;
#X obj 657 256 inlet Q;
#X obj 709 256 inlet add;
#X obj 769 256 inlet mul;
#X obj 454 253 inlet pan;
#X obj 652 -363 loadbang;
#X obj 834 255 inlet octRatio;
#X obj 926 255 inlet octDamp;
#X obj 119 -316 * 1;
#X obj 652 -319 s \$0-index;
#X obj 134 -345 r \$0-index;
#X obj 11 190 r \$0-index;
#X obj 104 -293 * 1;
#X obj -31 233 * 1;
#X obj -16 211 pow 1;
#X obj -52 696 outlet~ l;
#X obj 11 696 outlet~ r;
#X obj -52 -344 inlet~ white;
#X obj 119 -159 * 0.01;
#X obj 1012 256 inlet random;
#X obj 119 -137 - 0.5;
#X obj 119 -181 random 101;
#X obj 203 -190 * 0.5;
#X obj 203 -168 * 0.01;
#X obj 104 -113 +;
#X obj -1 593 r \$0-pan;
#X obj 454 276 s \$0-pan;
#X obj 588 276 s \$0-amb;
#X obj 23 -290 r \$0-amb;
#X obj 520 276 s \$0-freq;
#X obj 104 -397 r \$0-freq;
#X obj 657 278 s \$0-Q;
#X obj 85 9 r \$0-Q;
#X obj 709 278 s \$0-add;
#X obj 53 60 r \$0-add;
#X obj 769 278 s \$0-mul;
#X obj -31 148 r \$0-mul;
#X obj 834 277 s \$0-octRatio;
#X obj 119 -367 r \$0-octRatio;
#X obj 926 277 s \$0-octDamp;
#X obj -16 169 r \$0-octDamp;
#X obj 1012 278 s \$0-randVal;
#X obj 164 -240 r \$0-randVal;
#X text 62 170 damping per octave according to the octDamp value;
#X text 59 591 0 = left 1 = right;
#X obj 104 -69 line;
#X msg 104 -91 \$1 5000;
#X obj 1092 256 inlet random;
#X obj 1092 278 s \$0-octaves;
#X obj -52 461 *~ 1;
#X obj -36 -323 vd~ windspeed 0;
#X obj 164 -215 t b f f;
#X connect 0 0 24 0;
#X connect 1 0 11 0;
#X connect 2 0 1 0;
#X connect 3 0 1 1;
#X connect 4 0 9 0;
#X connect 5 0 30 0;
#X connect 5 1 31 0;
#X connect 6 0 7 0;
#X connect 7 0 2 1;
#X connect 8 0 2 2;
#X connect 9 0 8 0;
#X connect 10 0 3 0;
#X connect 10 0 3 1;
#X connect 11 0 64 0;
#X connect 12 0 13 0;
#X connect 13 0 5 1;
#X connect 14 0 44 0;
#X connect 15 0 42 0;
#X connect 16 0 46 0;
#X connect 17 0 48 0;
#X connect 18 0 50 0;
#X connect 19 0 41 0;
#X connect 20 0 0 0;
#X connect 21 0 52 0;
#X connect 22 0 54 0;
#X connect 23 0 27 1;
#X connect 25 0 23 1;
#X connect 26 0 29 1;
#X connect 27 0 39 0;
#X connect 28 0 11 1;
#X connect 29 0 28 1;
#X connect 32 0 2 0;
#X connect 33 0 35 0;
#X connect 34 0 56 0;
#X connect 35 0 39 1;
#X connect 36 0 33 0;
#X connect 37 0 38 0;
#X connect 38 0 35 1;
#X connect 39 0 61 0;
#X connect 40 0 12 0;
#X connect 43 0 6 1;
#X connect 45 0 27 0;
#X connect 47 0 8 0;
#X connect 49 0 10 1;
#X connect 51 0 28 0;
#X connect 53 0 23 0;
#X connect 55 0 29 0;
#X connect 57 0 66 0;
#X connect 60 0 7 1;
#X connect 60 0 65 0;
#X connect 61 0 60 0;
#X connect 62 0 63 0;
#X connect 64 0 5 0;
#X connect 65 0 6 0;
#X connect 65 0 10 0;
#X connect 66 0 36 0;
#X connect 66 1 36 1;
#X connect 66 2 37 0;
