#N canvas 252 74 1565 882 10;
#X obj 73 103 r windSpeed;
#X obj 73 148 delwrite~ a 3000;
#X obj 167 214 noise~;
#X obj 679 778 dac~;
#X floatatom 837 105 5 0 0 0 - - -;
#X obj 840 80 hsl 128 15 0 1.5 0 0 empty empty empty -2 -8 0 10 -262144
-1 -1 0 1;
#X obj 28 425 r \$0-mood;
#N canvas 953 155 806 766 background 0;
#X obj -40 -1648 vd~ a 0;
#X obj -40 -1524 *~;
#X obj 62 -1648 r~ \$0-white;
#X obj -40 -1472 rzero~;
#X text -33 -1672 background;
#X obj -39 -1184 fcpan 0.5;
#X obj -40 -1442 *~ 1;
#X obj 75 -1895 inlet mood;
#X obj -6 -1496 clip~ 0 0.99;
#X obj -6 -1518 *~ 0.8;
#N canvas 1337 355 450 514 params 0;
#X obj 194 -1633 f;
#X obj 162 -1610 * -1;
#X obj 56 -1774 sel 0 1 2 3;
#X floatatom 56 -1658 5 0 0 0 - - -;
#X floatatom 106 -1658 5 0 0 0 - - -;
#X floatatom 194 -1658 5 0 0 0 - - -;
#X floatatom 268 -1658 5 0 0 0 - - -;
#X obj 56 -1588 line;
#X msg 56 -1610 \$1 5000;
#X obj 106 -1588 line;
#X msg 106 -1610 \$1 5000;
#X obj 162 -1558 line;
#X msg 162 -1580 \$1 5000;
#X obj 212 -1558 line;
#X msg 212 -1580 \$1 5000;
#X obj 268 -1579 line;
#X msg 268 -1601 \$1 5000;
#X obj 56 -1804 inlet mood;
#X obj 56 -1489 outlet;
#X obj 106 -1489 outlet;
#X obj 162 -1489 outlet;
#X obj 212 -1489 outlet;
#X obj 268 -1489 outlet;
#X floatatom 318 -1658 5 0 0 0 - - -;
#X obj 318 -1579 line;
#X msg 318 -1601 \$1 5000;
#X obj 318 -1489 outlet;
#X obj 56 -1690 unpack f f f f f f;
#X floatatom 368 -1658 5 0 0 0 - - -;
#X obj 368 -1579 line;
#X msg 368 -1601 \$1 5000;
#X obj 368 -1489 outlet;
#X msg 148 -1733 100 1 10 0.3 0.2 2500;
#X msg 237 -1756 500 0.75 35 0.2 0.3 5000;
#X text 51 -1434 howl freq | mul | noise Q | noise freq | noise thresh
| lop freq;
#X obj 194 -1609 + 5;
#X msg 56 -1712 200 1 5 0.5 0.2 5000;
#X connect 0 0 1 0;
#X connect 0 0 35 0;
#X connect 1 0 12 0;
#X connect 2 0 36 0;
#X connect 2 1 32 0;
#X connect 2 2 33 0;
#X connect 3 0 8 0;
#X connect 4 0 10 0;
#X connect 5 0 0 0;
#X connect 6 0 16 0;
#X connect 7 0 18 0;
#X connect 8 0 7 0;
#X connect 9 0 19 0;
#X connect 10 0 9 0;
#X connect 11 0 20 0;
#X connect 12 0 11 0;
#X connect 13 0 21 0;
#X connect 14 0 13 0;
#X connect 15 0 22 0;
#X connect 16 0 15 0;
#X connect 17 0 2 0;
#X connect 23 0 25 0;
#X connect 24 0 26 0;
#X connect 25 0 24 0;
#X connect 27 0 3 0;
#X connect 27 1 4 0;
#X connect 27 2 5 0;
#X connect 27 3 6 0;
#X connect 27 4 23 0;
#X connect 27 5 28 0;
#X connect 28 0 30 0;
#X connect 29 0 31 0;
#X connect 30 0 29 0;
#X connect 32 0 27 0;
#X connect 33 0 27 0;
#X connect 35 0 14 0;
#X connect 36 0 27 0;
#X restore 380 -1794 pd params;
#X text 447 -1795 howl freq | mul | noise amount | noise freq | noise
thresh | lop freq;
#X floatatom 597 -1652 5 0 0 0 - - -;
#X obj 600 -1677 hsl 128 15 0 1.5 0 0 empty empty empty -2 -8 0 10
-262144 -1 -1 0 1;
#X obj -39 -1140 throw~ \$0-wind_L;
#X obj 13 -1160 throw~ \$0-wind_R;
#X obj -40 -1557 +~ 0.2;
#X floatatom 106 -1486 5 0 0 0 - - -;
#X obj 80 -1592 +~ 100;
#X obj -39 -1323 hip~ 150;
#X obj -39 -1301 hip~ 150;
#X obj -39 -1279 hip~ 150;
#X obj -39 -1257 hip~ 150;
#X obj 62 -1541 vcf~ 10;
#X obj 80 -1613 *~ 200;
#X obj 597 -1631 s windSpeed;
#X msg 250 -1340 100;
#X obj -39 -1405 bp~ 200 1;
#X obj 101 -1381 *~ 1;
#X obj -39 -1379 *~ 3;
#X obj 100 -1405 bp~ 1600 2;
#X obj -38 -1227 *~ 4;
#X obj 25 -1405 bp~ 400 5;
#X obj 25 -1381 *~ 1;
#X connect 0 0 16 0;
#X connect 0 0 24 0;
#X connect 1 0 3 0;
#X connect 2 0 23 0;
#X connect 3 0 6 0;
#X connect 5 0 14 0;
#X connect 5 1 15 0;
#X connect 6 0 27 0;
#X connect 6 0 30 0;
#X connect 6 0 32 0;
#X connect 7 0 10 0;
#X connect 8 0 3 1;
#X connect 9 0 8 0;
#X connect 12 0 25 0;
#X connect 13 0 12 0;
#X connect 16 0 1 0;
#X connect 16 0 9 0;
#X connect 17 0 27 1;
#X connect 18 0 23 1;
#X connect 19 0 20 0;
#X connect 20 0 21 0;
#X connect 21 0 22 0;
#X connect 22 0 31 0;
#X connect 23 0 1 1;
#X connect 24 0 18 0;
#X connect 26 0 19 1;
#X connect 26 0 20 1;
#X connect 26 0 21 1;
#X connect 26 0 22 1;
#X connect 27 0 29 0;
#X connect 29 0 19 0;
#X connect 30 0 28 0;
#X connect 31 0 5 0;
#X connect 32 0 33 0;
#X connect 33 0 19 0;
#X restore 28 469 pd background;
#X obj 701 106 vradio 15 1 0 8 empty empty empty 0 -8 0 10 -262144
-1 -1 0;
#X text 719 119 scary;
#X text 719 104 calm;
#X text 719 134 storm;
#X floatatom 701 231 5 0 0 0 - - -;
#X obj 728 280 s \$0-mood;
#X obj 29 371 s \$0-BG_Mul;
#X obj 103 445 r \$0-BG_Mul;
#X obj 701 80 r wind_mood;
#X obj 29 349 r wind_BG_Mul;
#N canvas 274 275 1586 693 whistles 0;
#X floatatom 235 -465 5 0 0 0 - - -;
#X obj 238 -490 hsl 128 15 0 1.5 0 0 empty empty empty -2 -8 0 10 -262144
-1 -1 0 1;
#N canvas 838 425 774 514 parametres 0;
#X obj 56 -1814 sel 0 1 2 3;
#X floatatom 56 -1618 5 0 0 0 - - -;
#X floatatom 106 -1618 5 0 0 0 - - -;
#X floatatom 194 -1618 5 0 0 0 - - -;
#X floatatom 268 -1618 5 0 0 0 - - -;
#X obj 56 -1548 line;
#X msg 56 -1570 \$1 5000;
#X obj 106 -1548 line;
#X msg 106 -1570 \$1 5000;
#X obj 194 -1497 line;
#X msg 194 -1519 \$1 5000;
#X obj 268 -1539 line;
#X msg 268 -1561 \$1 5000;
#X obj 56 -1844 inlet mood;
#X obj 56 -1449 outlet;
#X obj 106 -1449 outlet;
#X obj 268 -1449 outlet;
#X floatatom 318 -1618 5 0 0 0 - - -;
#X obj 318 -1539 line;
#X msg 318 -1561 \$1 5000;
#X obj 318 -1449 outlet;
#X floatatom 368 -1618 5 0 0 0 - - -;
#X obj 368 -1539 line;
#X msg 368 -1561 \$1 5000;
#X obj 368 -1449 outlet;
#X obj 194 -1450 outlet;
#X floatatom 428 -1618 5 0 0 0 - - -;
#X obj 428 -1539 line;
#X msg 428 -1561 \$1 5000;
#X obj 428 -1449 outlet;
#X floatatom 488 -1618 5 0 0 0 - - -;
#X obj 488 -1449 outlet;
#X floatatom 538 -1618 5 0 0 0 - - -;
#X obj 538 -1449 outlet;
#X obj 56 -1690 unpack f f f f f f f f f;
#X text 54 -1409 base freq | freq amp | Q | add | mul | octRatio |
octDamp | random value | octaves;
#X msg 56 -1378 100 500 120 0.25 2 1.3 0.5 10000 2;
#X text 55 -1360 f amb Q add mul 8R 8da rdm 8va;
#X msg 148 -1733 250 1000 200 0.45 0.5 3 0.75 0 4;
#X msg 250 -1753 50 1000 120 0.25 1 2 0.75 10000 4;
#X text 59 -1601 freq;
#X text 113 -1601 ambitus;
#X text 198 -1603 Q;
#X text 272 -1603 add;
#X text 321 -1604 mul;
#X text 372 -1602 octRatio;
#X text 432 -1603 octDamp;
#X text 492 -1603 randVal;
#X text 542 -1602 octaves;
#X msg 57 -1712 100 500 500 0.12 10 2 0.5 10000 4;
#X connect 0 0 49 0;
#X connect 0 1 38 0;
#X connect 0 2 39 0;
#X connect 1 0 6 0;
#X connect 2 0 8 0;
#X connect 3 0 10 0;
#X connect 4 0 12 0;
#X connect 5 0 14 0;
#X connect 6 0 5 0;
#X connect 7 0 15 0;
#X connect 8 0 7 0;
#X connect 9 0 25 0;
#X connect 10 0 9 0;
#X connect 11 0 16 0;
#X connect 12 0 11 0;
#X connect 13 0 0 0;
#X connect 17 0 19 0;
#X connect 18 0 20 0;
#X connect 19 0 18 0;
#X connect 21 0 23 0;
#X connect 22 0 24 0;
#X connect 23 0 22 0;
#X connect 26 0 28 0;
#X connect 27 0 29 0;
#X connect 28 0 27 0;
#X connect 30 0 31 0;
#X connect 32 0 33 0;
#X connect 34 0 1 0;
#X connect 34 1 2 0;
#X connect 34 2 3 0;
#X connect 34 3 4 0;
#X connect 34 4 17 0;
#X connect 34 5 21 0;
#X connect 34 6 26 0;
#X connect 34 7 30 0;
#X connect 34 8 32 0;
#X connect 38 0 34 0;
#X connect 39 0 34 0;
#X connect 49 0 34 0;
#X restore 373 -441 pd parametres;
#X obj 373 -470 inlet mood;
#X obj 373 -241 s \$0-baseFreq;
#X obj 382 -264 s \$0-freqAmb;
#X obj 391 -286 s \$0-Q;
#X obj 401 -307 s \$0-add;
#X obj 410 -328 s \$0-mul;
#X obj 419 -349 s \$0-octRatio;
#X obj 429 -369 s \$0-octDamp;
#X obj 60 -117 r \$0-baseFreq;
#X obj 145 -117 r \$0-freqAmb;
#X obj 224 -117 r \$0-Q;
#X obj 267 -117 r \$0-add;
#X obj 322 -117 r \$0-mul;
#X obj 377 -117 r \$0-octRatio;
#X obj 461 -117 r \$0-octDamp;
#X obj 45 -174 r~ \$0-white;
#X obj 438 -389 s \$0-randVal;
#X obj 540 -117 r \$0-randVal;
#X text 465 -446 base freq | freq amp | Q | add | mul | octRatio |
octDamp | randVal | octaves;
#X obj 448 -411 s \$0-octaves;
#X obj 620 -117 r \$0-octaves;
#X obj 698 -96 inlet pan1;
#X obj 704 -76 inlet pan2;
#X obj 708 -56 inlet pan3;
#X obj 712 -36 inlet pan4;
#X obj 542 -347 inlet mul;
#X obj 324 104 throw~ \$0-wind_R;
#X obj 143 105 throw~ \$0-wind_L;
#X obj 44 52 wind_whistle 1;
#X obj 144 52 wind_whistle 2;
#X obj 243 52 wind_whistle 3;
#X obj 343 52 wind_whistle 4;
#X obj 235 -444 s windSpeed;
#X connect 0 0 35 0;
#X connect 1 0 0 0;
#X connect 2 0 4 0;
#X connect 2 1 5 0;
#X connect 2 2 6 0;
#X connect 2 3 7 0;
#X connect 2 4 8 0;
#X connect 2 5 9 0;
#X connect 2 6 10 0;
#X connect 2 7 19 0;
#X connect 2 8 22 0;
#X connect 3 0 2 0;
#X connect 11 0 31 2;
#X connect 11 0 32 2;
#X connect 11 0 33 2;
#X connect 11 0 34 2;
#X connect 12 0 31 3;
#X connect 12 0 32 3;
#X connect 12 0 33 3;
#X connect 12 0 34 3;
#X connect 13 0 31 4;
#X connect 13 0 32 4;
#X connect 13 0 33 4;
#X connect 13 0 34 4;
#X connect 14 0 31 5;
#X connect 14 0 32 5;
#X connect 14 0 33 5;
#X connect 14 0 34 5;
#X connect 15 0 31 6;
#X connect 15 0 32 6;
#X connect 15 0 33 6;
#X connect 15 0 34 6;
#X connect 16 0 31 7;
#X connect 16 0 32 7;
#X connect 16 0 33 7;
#X connect 16 0 34 7;
#X connect 17 0 31 8;
#X connect 17 0 32 8;
#X connect 17 0 33 8;
#X connect 17 0 34 8;
#X connect 18 0 31 0;
#X connect 18 0 32 0;
#X connect 18 0 33 0;
#X connect 18 0 34 0;
#X connect 20 0 31 9;
#X connect 20 0 32 9;
#X connect 20 0 33 9;
#X connect 20 0 34 9;
#X connect 23 0 31 10;
#X connect 23 0 32 10;
#X connect 23 0 33 10;
#X connect 23 0 34 10;
#X connect 24 0 31 1;
#X connect 25 0 32 1;
#X connect 26 0 33 1;
#X connect 27 0 34 1;
#X connect 28 0 8 0;
#X connect 31 0 30 0;
#X connect 31 1 29 0;
#X connect 32 0 30 0;
#X connect 32 1 29 0;
#X connect 33 0 30 0;
#X connect 33 1 29 0;
#X connect 34 0 30 0;
#X connect 34 1 29 0;
#X restore 205 469 pd whistles;
#X floatatom 39 656 5 0 0 0 - - -;
#X obj 42 631 hsl 128 15 0 1 0 0 empty empty background -2 -8 0 10
-262144 -1 -1 0 1;
#X obj 39 677 s \$0-BG_Mul;
#X obj 205 278 r \$0-mood;
#X obj 701 253 t b f;
#X obj 651 304 bng 15 250 50 0 empty empty empty 17 7 0 10 -262144
-1 -1;
#X obj 701 301 s \$2-moodChange;
#X obj 167 236 s~ \$0-white;
#X floatatom 38 735 5 0 0 0 - - -;
#X obj 41 710 hsl 128 15 0 1 0 0 empty empty whistle -2 -8 0 10 -262144
-1 -1 5200 1;
#X obj 38 756 s \$0-WH_Mul;
#X obj 217 298 r \$0-WH_Mul;
#X obj 701 627 catch~ \$0-wind_R;
#X obj 679 606 catch~ \$0-wind_L;
#X obj 663 51 loadbang;
#X msg 663 75 0;
#X obj 230 340 r whistle_pan_01;
#X obj 242 361 r whistle_pan_02;
#X obj 255 381 r whistle_pan_03;
#X obj 268 402 r whistle_pan_04;
#N canvas 867 675 450 300 leaves 0;
#X obj 24 -751 max~;
#X obj 24 -730 -~;
#X obj 24 -708 *~;
#X obj 203 -837 sig~ 1;
#X obj 203 -813 -~;
#X obj 25 -642 *~;
#X obj 24 -829 r~ \$0-white;
#X obj 25 -600 fcpan 0.5;
#X text 59 -950 leaves;
#X obj 221 -914 lop~ 0.1;
#X obj 220 -888 *~ 0.4;
#X obj 220 -866 +~ 0.3;
#X obj 221 -938 vd~ a 2000;
#X obj 25 -664 lop~ 4000;
#X obj 24 -686 hip~ 100;
#X obj 203 -791 *~ 0.75;
#X obj 25 -555 throw~ \$0-wind_L;
#X obj 82 -575 throw~ \$0-wind_R;
#X obj 25 -621 *~ 0;
#X connect 0 0 1 0;
#X connect 1 0 2 0;
#X connect 2 0 14 0;
#X connect 3 0 4 0;
#X connect 4 0 1 1;
#X connect 4 0 2 1;
#X connect 4 0 15 0;
#X connect 5 0 18 0;
#X connect 6 0 0 0;
#X connect 7 0 16 0;
#X connect 7 1 17 0;
#X connect 9 0 10 0;
#X connect 9 0 5 1;
#X connect 10 0 11 0;
#X connect 11 0 4 1;
#X connect 12 0 9 0;
#X connect 13 0 5 0;
#X connect 14 0 13 0;
#X connect 15 0 0 1;
#X connect 18 0 7 0;
#X restore 28 493 pd leaves;
#N canvas 315 139 450 753 howl 0;
#X obj -515 -1014 *~;
#X obj -437 -1123 cos~;
#X obj -437 -1145 -~ 0.25;
#X obj -437 -1167 *~ 2;
#X obj -515 -970 *~;
#X obj -437 -1035 osc~;
#X obj -437 -1211 clip~ 0.35 0.6;
#X obj -437 -1189 -~ 0.35;
#X obj -437 -1101 lop~ 0.5;
#X obj -437 -1079 *~ 200;
#X obj -437 -1057 +~ 30;
#X obj -515 -992 *~ 2;
#X obj -515 -898 fcpan 0.91;
#X obj -437 -1233 vd~ a 0;
#X obj -515 -1058 r~ \$0-white;
#X text -464 -1261 Howls;
#X obj -310 -1010 *~;
#X obj -232 -1119 cos~;
#X obj -232 -1141 -~ 0.25;
#X obj -232 -1163 *~ 2;
#X obj -310 -966 *~;
#X obj -232 -1031 osc~;
#X obj -232 -1185 -~ 0.35;
#X obj -232 -1075 *~ 200;
#X obj -232 -1053 +~ 30;
#X obj -310 -988 *~ 2;
#X obj -310 -894 fcpan 0.91;
#X obj -310 -1054 r~ \$0-white;
#X text -259 -1257 Howls;
#X obj -232 -1097 lop~ 0.75;
#X obj -232 -1207 clip~ 0.35 0.8;
#X obj -515 -1036 bp~ 200 40;
#X obj -310 -1032 bp~ 100 40;
#X obj -232 -1229 vd~ a 0;
#X obj -458 -876 throw~ \$0-wind_R;
#X obj -515 -856 throw~ \$0-wind_L;
#X obj -310 -852 throw~ \$0-wind_L;
#X obj -253 -872 throw~ \$0-wind_R;
#X obj -213 -958 inlet mul;
#X obj -311 -914 *~ 0;
#X obj -515 -918 *~ 0;
#X connect 0 0 11 0;
#X connect 1 0 8 0;
#X connect 2 0 1 0;
#X connect 3 0 2 0;
#X connect 4 0 40 0;
#X connect 5 0 4 1;
#X connect 6 0 7 0;
#X connect 7 0 3 0;
#X connect 8 0 0 1;
#X connect 8 0 9 0;
#X connect 9 0 10 0;
#X connect 10 0 5 0;
#X connect 11 0 4 0;
#X connect 12 0 35 0;
#X connect 12 1 34 0;
#X connect 13 0 6 0;
#X connect 14 0 31 0;
#X connect 16 0 25 0;
#X connect 17 0 29 0;
#X connect 18 0 17 0;
#X connect 19 0 18 0;
#X connect 20 0 39 0;
#X connect 21 0 20 1;
#X connect 22 0 19 0;
#X connect 23 0 24 0;
#X connect 24 0 21 0;
#X connect 25 0 20 0;
#X connect 26 0 36 0;
#X connect 26 1 37 0;
#X connect 27 0 32 0;
#X connect 29 0 16 1;
#X connect 29 0 23 0;
#X connect 30 0 22 0;
#X connect 31 0 0 0;
#X connect 32 0 16 0;
#X connect 33 0 30 0;
#X connect 38 0 39 1;
#X connect 38 0 40 1;
#X connect 39 0 26 0;
#X connect 40 0 12 0;
#X restore 30 541 pd howl;
#X floatatom 191 736 5 0 0 0 - - -;
#X obj 194 711 hsl 128 15 0 1 0 0 empty empty howl -2 -8 0 10 -262144
-1 -1 0 1;
#X obj 191 757 s \$0-Howl_Mul;
#X obj 30 518 r \$0-Howl_Mul;
#X msg 643 608 1;
#X text 679 576 wind;
#X obj 837 126 s windSpeed;
#N canvas 523 5 693 658 chirper 0;
#X obj 222 408 *~;
#X obj 222 321 cos~;
#X obj 222 343 clip~ 0 1;
#X obj 238 219 wrap~;
#X obj 223 275 +~;
#X obj 160 218 wrap~;
#X obj 221 543 *~;
#X obj 237 518 inlet~;
#X obj 204 21 phasor~ 0.8;
#X obj 354 31 random 8;
#X obj 354 56 + 41;
#X obj 354 2 metro 8000;
#X obj 354 -26 tgl 15 0 empty empty empty 17 7 0 10 -262144 -1 -1 1
1;
#X obj 354 -68 loadbang;
#X msg 354 -46 1;
#X floatatom 354 129 5 0 0 0 - - -;
#X obj 354 105 line;
#X msg 354 81 \$1 8000;
#X obj 205 145 *~;
#X obj 222 299 +~ 0.25;
#X obj 238 368 osc~ 5134;
#X obj 312 231 metro 8000;
#X floatatom 312 358 10 0 0 0 - - -;
#X obj 312 334 line;
#X msg 312 310 \$1 8000;
#X obj 312 390 osc~;
#X obj 312 285 + 11300;
#X obj 312 260 random 1300;
#X obj 160 181 clip~ 0 1;
#X obj 238 182 clip~ 1 4;
#X obj 399 424 random 2;
#X floatatom 399 476 7 0 0 0 - - -;
#X obj 222 492 *~;
#X obj 470 380 random 5;
#X obj 470 408 * 0.01;
#X floatatom 470 433 5 0 0 0 - - -;
#X obj 399 449 *;
#X obj 478 169 random 5000;
#X obj 478 192 + 5000;
#X floatatom 478 214 5 0 0 0 - - -;
#X obj 451 282 t b b b;
#X obj 451 255 metro;
#X obj 220 570 outlet~;
#X connect 0 0 32 0;
#X connect 1 0 2 0;
#X connect 2 0 0 0;
#X connect 3 0 4 1;
#X connect 4 0 19 0;
#X connect 5 0 4 0;
#X connect 6 0 42 0;
#X connect 7 0 6 1;
#X connect 8 0 18 0;
#X connect 9 0 10 0;
#X connect 10 0 17 0;
#X connect 11 0 9 0;
#X connect 12 0 11 0;
#X connect 12 0 21 0;
#X connect 12 0 41 0;
#X connect 13 0 14 0;
#X connect 14 0 12 0;
#X connect 15 0 18 1;
#X connect 16 0 15 0;
#X connect 17 0 16 0;
#X connect 18 0 28 0;
#X connect 18 0 29 0;
#X connect 19 0 1 0;
#X connect 20 0 0 1;
#X connect 21 0 27 0;
#X connect 22 0 25 0;
#X connect 23 0 22 0;
#X connect 24 0 23 0;
#X connect 25 0 0 1;
#X connect 26 0 24 0;
#X connect 27 0 26 0;
#X connect 28 0 5 0;
#X connect 29 0 3 0;
#X connect 30 0 36 0;
#X connect 31 0 32 1;
#X connect 32 0 6 0;
#X connect 33 0 34 0;
#X connect 34 0 35 0;
#X connect 35 0 36 1;
#X connect 36 0 31 0;
#X connect 37 0 38 0;
#X connect 38 0 39 0;
#X connect 39 0 41 1;
#X connect 40 0 37 0;
#X connect 40 1 33 0;
#X connect 40 2 30 0;
#X connect 41 0 40 0;
#X restore 1243 614 pd chirper;
#N canvas 0 0 667 669 critters2 0;
#X obj 88 616 *~;
#X obj 89 578 *~;
#X obj 89 542 *~;
#X obj 87 643 hip~ 20;
#X obj 90 497 cos~;
#X obj 153 496 cos~;
#X obj 228 495 cos~;
#X obj 298 495 cos~;
#X obj 298 465 phasor~;
#X obj 229 465 phasor~;
#X obj 153 466 phasor~;
#X obj 91 466 phasor~;
#X obj 126 -9 loadbang;
#X text 124 723 night critters \, ajf2005;
#X obj 86 722 *~;
#X obj 86 744 *~ 0.007;
#X obj 153 743 inlet~;
#X obj 221 626 * 0.01;
#X floatatom 221 676 5 0 0 0 - - -;
#X obj 221 574 bng 15 250 50 0 empty empty empty 17 7 0 10 -262144
-1 -1;
#X obj 272 557 metro 20000;
#X obj 221 698 osc~;
#X obj 221 598 random 7;
#X obj 221 653 + 0.02;
#X obj 348 233 random 100;
#X obj 347 254 * 0.01;
#X obj 346 279 - 0.5;
#X floatatom 346 303 5 0 0 0 - - -;
#X obj 298 319 +;
#X floatatom 298 421 5 0 0 0 - - -;
#X obj 298 216 t f b;
#X obj 298 397 line;
#X obj 298 133 metro 8000;
#X msg 298 373 \$1 8000;
#X floatatom 329 343 5 0 0 0 - - -;
#X obj 298 105 tgl 15 0 empty empty empty 17 7 0 10 -262144 -1 -1 1
1;
#X obj 298 63 loadbang;
#X msg 298 85 1;
#X obj 126 83 unpack f f f f;
#X obj 298 187 f;
#X obj 126 17 t b b;
#X msg 126 42 2012 4 20 2;
#X obj 87 772 *~ 0;
#X obj 87 802 outlet~;
#X connect 0 0 3 0;
#X connect 1 0 0 0;
#X connect 2 0 1 0;
#X connect 3 0 14 0;
#X connect 4 0 2 0;
#X connect 5 0 2 1;
#X connect 6 0 1 1;
#X connect 7 0 0 1;
#X connect 8 0 7 0;
#X connect 9 0 6 0;
#X connect 10 0 5 0;
#X connect 11 0 4 0;
#X connect 12 0 40 0;
#X connect 14 0 15 0;
#X connect 15 0 42 0;
#X connect 16 0 42 1;
#X connect 17 0 23 0;
#X connect 18 0 21 0;
#X connect 19 0 22 0;
#X connect 20 0 19 0;
#X connect 21 0 14 1;
#X connect 22 0 17 0;
#X connect 23 0 18 0;
#X connect 24 0 25 0;
#X connect 25 0 26 0;
#X connect 26 0 27 0;
#X connect 27 0 28 1;
#X connect 28 0 33 0;
#X connect 28 0 34 0;
#X connect 29 0 8 0;
#X connect 30 0 28 0;
#X connect 30 1 24 0;
#X connect 31 0 29 0;
#X connect 32 0 39 0;
#X connect 33 0 31 0;
#X connect 35 0 32 0;
#X connect 35 0 20 0;
#X connect 36 0 37 0;
#X connect 37 0 35 0;
#X connect 38 0 11 0;
#X connect 38 1 10 0;
#X connect 38 2 9 0;
#X connect 38 3 39 1;
#X connect 39 0 30 0;
#X connect 40 0 39 0;
#X connect 40 1 41 0;
#X connect 41 0 38 0;
#X connect 42 0 43 0;
#X restore 1046 617 pd critters2;
#N canvas 33 50 750 857 critters 0;
#X obj 93 528 *~;
#X obj 94 490 *~;
#X obj 94 454 *~;
#X obj 126 46 unpack 1 2 3 4;
#X obj 92 555 hip~ 20;
#X obj 95 409 cos~;
#X obj 158 408 cos~;
#X obj 233 407 cos~;
#X obj 303 407 cos~;
#X obj 303 377 phasor~;
#X obj 234 377 phasor~;
#X obj 158 378 phasor~;
#X obj 96 378 phasor~;
#X obj 126 -27 loadbang;
#X text 131 718 night critters \, ajf2005;
#X obj 93 717 *~;
#X obj 93 739 *~ 0.007;
#X obj 93 794 *~;
#X obj 109 769 inlet~;
#X obj 110 642 * 0.01;
#X floatatom 110 670 5 0 0 0 - - -;
#X obj 110 594 bng 15 250 50 0 empty empty empty 17 7 0 10 -262144
-1 -1;
#X obj 161 577 metro 20000;
#X obj 110 618 random 5;
#X obj 110 692 osc~;
#X msg 126 23 2134 4.279 20.4 15.5;
#X obj 351 158 random 100;
#X obj 351 179 * 0.01;
#X obj 351 204 - 0.5;
#X floatatom 351 228 5 0 0 0 - - -;
#X obj 303 244 +;
#X floatatom 303 346 5 0 0 0 - - -;
#X obj 303 141 t f b;
#X obj 303 322 line;
#X obj 303 58 metro 8000;
#X msg 303 298 \$1 8000;
#X floatatom 334 268 5 0 0 0 - - -;
#X obj 303 30 tgl 15 0 empty empty empty 17 7 0 10 -262144 -1 -1 1
1;
#X obj 303 -12 loadbang;
#X msg 303 10 1;
#X obj 303 112 f;
#X obj 126 -5 t b b;
#X obj 93 827 outlet~;
#X connect 0 0 4 0;
#X connect 1 0 0 0;
#X connect 2 0 1 0;
#X connect 3 0 12 0;
#X connect 3 1 11 0;
#X connect 3 2 10 0;
#X connect 3 3 40 1;
#X connect 4 0 15 0;
#X connect 5 0 2 0;
#X connect 6 0 2 1;
#X connect 7 0 1 1;
#X connect 8 0 0 1;
#X connect 9 0 8 0;
#X connect 10 0 7 0;
#X connect 11 0 6 0;
#X connect 12 0 5 0;
#X connect 13 0 41 0;
#X connect 15 0 16 0;
#X connect 16 0 17 0;
#X connect 17 0 42 0;
#X connect 18 0 17 1;
#X connect 19 0 20 0;
#X connect 20 0 24 0;
#X connect 21 0 23 0;
#X connect 22 0 21 0;
#X connect 23 0 19 0;
#X connect 24 0 15 1;
#X connect 25 0 3 0;
#X connect 26 0 27 0;
#X connect 27 0 28 0;
#X connect 28 0 29 0;
#X connect 29 0 30 1;
#X connect 30 0 35 0;
#X connect 30 0 36 0;
#X connect 31 0 9 0;
#X connect 32 0 30 0;
#X connect 32 1 26 0;
#X connect 33 0 31 0;
#X connect 34 0 40 0;
#X connect 35 0 33 0;
#X connect 37 0 34 0;
#X connect 37 0 22 0;
#X connect 38 0 39 0;
#X connect 39 0 37 0;
#X connect 40 0 32 0;
#X connect 41 0 40 0;
#X connect 41 1 25 0;
#X restore 1139 615 pd critters;
#X obj 1046 539 r critters2;
#X msg 1046 566 \$1 500;
#X obj 1046 593 line;
#X msg 1139 563 \$1 500;
#X obj 1139 590 line;
#X obj 1139 536 r critters;
#X msg 1243 561 \$1 500;
#X obj 1243 588 line;
#X obj 1243 534 r chirper;
#X obj 821 712 *~ 0;
#X obj 842 597 loadbang;
#X msg 842 649 \$1 500;
#X obj 842 671 line;
#X msg 842 619 1;
#X msg 1019 471 8;
#N canvas 1315 544 450 363 windspeed 0;
#X obj 73 104 +~ 1;
#X obj 73 126 *~ 0.25;
#X obj 73 248 +~;
#X obj 73 270 clip~ 0 1;
#X obj 73 292 outlet~;
#N canvas 406 457 450 300 gust 0;
#X obj 137 90 noise~;
#X obj 137 112 lop~ 0.5;
#X obj 137 134 lop~ 0.5;
#X obj 137 156 hip~ 0;
#X obj 137 178 *~ 50;
#X obj 137 200 *~;
#X obj 211 112 inlet~;
#X obj 211 134 +~ 0.5;
#X obj 211 156 *~;
#X obj 211 178 -~ 0.125;
#X obj 137 222 outlet~;
#X connect 0 0 1 0;
#X connect 1 0 2 0;
#X connect 2 0 3 0;
#X connect 3 0 4 0;
#X connect 4 0 5 0;
#X connect 5 0 10 0;
#X connect 6 0 7 0;
#X connect 7 0 8 0;
#X connect 7 0 8 1;
#X connect 8 0 9 0;
#X connect 9 0 5 1;
#X restore 87 158 pd gust;
#N canvas 733 503 450 300 squall 0;
#X obj 96 44 inlet~;
#X obj 96 88 -~ 0.4;
#X obj 96 110 *~ 8;
#X obj 96 132 *~;
#X obj 96 174 *~;
#X obj 176 46 noise~;
#X obj 176 68 lop~ 3;
#X obj 176 90 lop~ 3;
#X obj 176 112 hip~ 0;
#X obj 176 134 *~ 20;
#X obj 96 196 outlet~;
#X obj 96 66 max~ 0.4;
#X connect 0 0 11 0;
#X connect 1 0 2 0;
#X connect 2 0 3 0;
#X connect 2 0 3 1;
#X connect 3 0 4 0;
#X connect 4 0 10 0;
#X connect 5 0 6 0;
#X connect 6 0 7 0;
#X connect 7 0 8 0;
#X connect 8 0 9 0;
#X connect 9 0 4 1;
#X connect 11 0 1 0;
#X restore 138 158 pd squall;
#X obj 87 180 +~;
#X obj 73 81 inlet;
#X connect 0 0 1 0;
#X connect 1 0 2 0;
#X connect 1 0 5 0;
#X connect 1 0 6 0;
#X connect 2 0 3 0;
#X connect 3 0 4 0;
#X connect 5 0 7 0;
#X connect 6 0 7 1;
#X connect 7 0 2 1;
#X connect 8 0 0 0;
#X restore 73 126 pd windspeed;
#X obj 678 721 *~ 0;
#X obj 701 698 *~ 0;
#X connect 0 0 66 0;
#X connect 2 0 26 0;
#X connect 4 0 47 0;
#X connect 5 0 4 0;
#X connect 6 0 7 0;
#X connect 8 0 12 0;
#X connect 12 0 23 0;
#X connect 16 0 8 0;
#X connect 17 0 14 0;
#X connect 19 0 21 0;
#X connect 20 0 19 0;
#X connect 22 0 18 0;
#X connect 23 0 24 0;
#X connect 23 0 25 0;
#X connect 23 1 13 0;
#X connect 27 0 29 0;
#X connect 28 0 27 0;
#X connect 30 0 18 1;
#X connect 31 0 68 0;
#X connect 32 0 67 0;
#X connect 33 0 34 0;
#X connect 34 0 8 0;
#X connect 35 0 18 2;
#X connect 36 0 18 3;
#X connect 37 0 18 4;
#X connect 38 0 18 5;
#X connect 41 0 43 0;
#X connect 42 0 41 0;
#X connect 44 0 40 0;
#X connect 45 0 67 1;
#X connect 45 0 68 1;
#X connect 48 0 60 0;
#X connect 49 0 60 0;
#X connect 50 0 60 0;
#X connect 51 0 52 0;
#X connect 52 0 53 0;
#X connect 53 0 49 0;
#X connect 54 0 55 0;
#X connect 55 0 50 0;
#X connect 56 0 54 0;
#X connect 57 0 58 0;
#X connect 58 0 48 0;
#X connect 59 0 57 0;
#X connect 60 0 3 0;
#X connect 60 0 3 1;
#X connect 61 0 64 0;
#X connect 62 0 63 0;
#X connect 63 0 60 1;
#X connect 64 0 62 0;
#X connect 65 0 52 0;
#X connect 65 0 54 0;
#X connect 65 0 57 0;
#X connect 66 0 1 0;
#X connect 67 0 3 0;
#X connect 68 0 3 1;
