#N canvas 293 66 1277 854 10;
#X obj 521 395 vline~;
#X obj 505 311 noise~;
#X obj 505 438 *~;
#X msg 544 342 1 \$1 \, 0 \$2 \$1;
#X obj 544 316 pack f f;
#X obj 505 735 vcf~ 15;
#X obj 544 686 * 55;
#X obj 524 473 *~ 125;
#X obj 524 495 +~ 15;
#X obj 544 708 + 25;
#X floatatom 175 128 5 0 0 0 Attack - -;
#X floatatom 175 148 5 0 0 0 Release - -;
#X floatatom 175 168 5 0 0 0 FreqMin - -;
#X floatatom 175 188 5 0 0 0 FreqMax - -;
#X floatatom 175 208 5 0 0 0 QMin - -;
#X floatatom 175 228 5 0 0 0 QMax - -;
#X obj 108 108 bng 15 250 50 0 empty empty Woosh_it 17 7 0 10 -262144
-1 -1;
#X obj 211 30 inlet list;
#X obj 632 211 f 500;
#X obj 677 211 f 1000;
#X obj 266 144 s \$0-attack;
#X obj 266 164 s \$0-release;
#X obj 266 184 s \$0-fmin;
#X obj 265 204 s \$0-fmax;
#X obj 265 224 s \$0-qmin;
#X obj 265 244 s \$0-qmax;
#X obj 659 165 r \$0-attack;
#X obj 710 184 r \$0-release;
#X obj 4 162 s \$0-bang;
#X obj 632 69 r \$0-bang;
#X obj 632 240 deviate 10;
#X obj 677 265 deviate 10;
#X obj 632 133 t b b b;
#X obj 765 154 s \$0-devcalc;
#N canvas 411 546 450 300 freqs 0;
#X obj 203 91 r \$0-fmin;
#X obj 191 56 r \$0-fmax;
#X obj 176 168 f;
#X obj 176 273 deviate 10;
#X obj 191 145 -;
#X obj 203 113 t b f f;
#X obj 176 33 r \$0-devcalc;
#X obj 227 165 f;
#X obj 245 272 deviate 10;
#X obj 227 142 r \$0-devcalc;
#X obj 176 295 outlet max;
#X obj 245 294 outlet min;
#X obj 302 245 r \$0-deviation;
#X obj 233 224 r \$0-deviation;
#X connect 0 0 5 0;
#X connect 1 0 4 0;
#X connect 2 0 3 0;
#X connect 3 0 10 0;
#X connect 4 0 2 1;
#X connect 5 0 4 0;
#X connect 5 1 4 1;
#X connect 5 2 7 1;
#X connect 6 0 2 0;
#X connect 7 0 8 0;
#X connect 8 0 11 0;
#X connect 9 0 7 0;
#X connect 12 0 8 1;
#X connect 13 0 3 1;
#X restore 557 446 pd freqs;
#X floatatom 175 248 5 0 0 0 PanMin - -;
#N canvas 411 546 450 360 Q 0;
#X obj 191 145 -;
#X obj 203 113 t b f f;
#X obj 176 33 r \$0-devcalc;
#X obj 227 142 r \$0-devcalc;
#X obj 176 345 outlet max;
#X obj 245 344 outlet min;
#X obj 191 56 r \$0-qmax;
#X obj 203 91 r \$0-qmin;
#X obj 227 165 f;
#X obj 176 168 f;
#X obj 176 273 deviate 5;
#X obj 245 272 deviate 5;
#X obj 296 221 r \$0-deviation;
#X obj 296 243 min 5;
#X connect 0 0 9 1;
#X connect 1 0 0 0;
#X connect 1 1 0 1;
#X connect 1 2 8 1;
#X connect 2 0 9 0;
#X connect 3 0 8 0;
#X connect 6 0 0 0;
#X connect 7 0 1 0;
#X connect 8 0 11 0;
#X connect 9 0 10 0;
#X connect 10 0 4 0;
#X connect 11 0 5 0;
#X connect 12 0 13 0;
#X connect 13 0 11 1;
#X connect 13 0 10 1;
#X restore 565 663 pd Q;
#X obj 505 769 outlet~;
#X floatatom 175 268 5 0 0 0 PanMax - -;
#X floatatom 175 288 5 0 0 0 Deviation - -;
#X obj 265 304 s \$0-deviation;
#X obj 211 52 unpack f f f f f f f f f;
#X obj 265 264 s \$0-pmin;
#X obj 265 284 s \$0-pmax;
#X obj 663 431 line;
#X obj 433 5 loadbang;
#X floatatom 721 361 5 0 0 0 - - -;
#X msg 544 608 0 \, 1 \$1;
#X obj 544 635 line;
#X obj 601 579 pipe 500;
#X obj 544 556 unpack f f;
#X msg 601 608 1 \, 0 \$1;
#X obj 100 13 inlet bang;
#X msg 433 31 500 1000 125 250 25 55 0.2 0.8 30;
#X connect 0 0 2 1;
#X connect 0 0 7 0;
#X connect 1 0 2 0;
#X connect 2 0 5 0;
#X connect 3 0 0 0;
#X connect 3 0 44 0;
#X connect 4 0 3 0;
#X connect 4 0 50 0;
#X connect 5 0 37 0;
#X connect 6 0 9 0;
#X connect 7 0 8 0;
#X connect 8 0 5 1;
#X connect 9 0 5 2;
#X connect 10 0 20 0;
#X connect 11 0 21 0;
#X connect 12 0 22 0;
#X connect 13 0 23 0;
#X connect 14 0 24 0;
#X connect 15 0 25 0;
#X connect 16 0 28 0;
#X connect 17 0 41 0;
#X connect 18 0 30 0;
#X connect 19 0 31 0;
#X connect 26 0 18 1;
#X connect 27 0 19 1;
#X connect 29 0 32 0;
#X connect 30 0 4 0;
#X connect 31 0 4 1;
#X connect 31 0 46 0;
#X connect 32 0 18 0;
#X connect 32 1 19 0;
#X connect 32 2 33 0;
#X connect 34 0 7 1;
#X connect 34 1 8 1;
#X connect 35 0 42 0;
#X connect 36 0 6 1;
#X connect 36 1 9 1;
#X connect 38 0 43 0;
#X connect 39 0 40 0;
#X connect 41 0 10 0;
#X connect 41 1 11 0;
#X connect 41 2 12 0;
#X connect 41 3 13 0;
#X connect 41 4 14 0;
#X connect 41 5 15 0;
#X connect 41 6 35 0;
#X connect 41 7 38 0;
#X connect 41 8 39 0;
#X connect 45 0 53 0;
#X connect 47 0 48 0;
#X connect 48 0 6 0;
#X connect 49 0 51 0;
#X connect 50 0 47 0;
#X connect 50 0 49 1;
#X connect 50 1 49 0;
#X connect 51 0 48 0;
#X connect 52 0 16 0;
#X connect 53 0 41 0;
#X coords 0 -1 1 1 125 225 2 100 100;
