#N canvas 481 5 1044 982 10;
#X obj -92 67 mtof;
#X obj -48 419 vline~;
#X obj 104 284 sel 0;
#X floatatom 104 369 5 0 0 0 - - -;
#X obj -92 23 unpack f f;
#X obj -92 440 *~;
#X obj -25 261 r \$1-attack;
#X obj -2 282 r \$1-decay;
#X obj 21 303 r \$1-sustain;
#X obj 147 284 r \$1-release;
#X obj -92 -83 inlet note-vel;
#X obj -37 622 * 0.00787402;
#X text 41 621 1 / 127;
#X obj -48 349 pack f f f f;
#X obj -76 644 f;
#X obj -76 600 > 0;
#X obj -76 622 sel 1;
#X obj -91 719 *~;
#X obj -48 231 stripnote;
#X obj 3 161 t f f f;
#X msg -48 379 0 \, 1 \$2 \, \$4 \$3 \$2;
#X obj 104 306 f;
#X msg 104 347 0 \$1;
#X obj -91 741 fcpan;
#X obj 353 417 vline~;
#X obj 505 282 sel 0;
#X floatatom 505 367 5 0 0 0 - - -;
#X obj 376 259 r \$1-attack;
#X obj 399 280 r \$1-decay;
#X obj 422 301 r \$1-sustain;
#X obj 550 286 r \$1-release;
#X obj 353 347 pack f f f f;
#X obj 353 229 stripnote;
#X msg 353 377 0 \, 1 \$2 \, \$4 \$3 \$2;
#X obj 505 304 f;
#X msg 505 345 0 \$1;
#X obj 282 437 *~;
#X obj -92 532 *~ 0.5;
#X obj -91 793 throw~ \$1-outL;
#X obj -63 774 throw~ \$1-outR;
#X obj 404 206 f;
#X obj 282 122 * 2;
#X obj 399 302 * 0.25;
#X obj 282 145 osc~;
#X obj -92 119 osc~;
#X msg -64 718 0.5;
#X obj -64 694 loadbang;
#X obj 282 459 *~ 0.5;
#X connect 0 0 41 0;
#X connect 0 0 44 0;
#X connect 1 0 5 1;
#X connect 2 0 21 0;
#X connect 4 0 0 0;
#X connect 4 0 18 0;
#X connect 4 0 32 0;
#X connect 4 1 19 0;
#X connect 4 1 40 0;
#X connect 5 0 37 0;
#X connect 6 0 13 1;
#X connect 7 0 13 2;
#X connect 8 0 13 3;
#X connect 9 0 21 1;
#X connect 10 0 4 0;
#X connect 11 0 14 1;
#X connect 13 0 20 0;
#X connect 14 0 17 1;
#X connect 15 0 16 0;
#X connect 16 0 14 0;
#X connect 17 0 23 0;
#X connect 18 0 13 0;
#X connect 19 0 18 1;
#X connect 19 0 2 0;
#X connect 19 1 15 0;
#X connect 19 2 11 0;
#X connect 20 0 1 0;
#X connect 21 0 22 0;
#X connect 22 0 1 0;
#X connect 22 0 3 0;
#X connect 23 0 38 0;
#X connect 23 1 39 0;
#X connect 24 0 36 1;
#X connect 25 0 34 0;
#X connect 27 0 31 1;
#X connect 28 0 42 0;
#X connect 29 0 31 3;
#X connect 30 0 34 1;
#X connect 31 0 33 0;
#X connect 32 0 31 0;
#X connect 33 0 24 0;
#X connect 34 0 35 0;
#X connect 35 0 24 0;
#X connect 35 0 26 0;
#X connect 36 0 47 0;
#X connect 37 0 17 0;
#X connect 40 0 32 1;
#X connect 40 0 25 0;
#X connect 41 0 43 0;
#X connect 42 0 31 2;
#X connect 43 0 36 0;
#X connect 44 0 5 0;
#X connect 45 0 23 1;
#X connect 46 0 45 0;
#X connect 47 0 37 0;
